<svg width="900" height="339" viewBox="0 0 900 339" fill="none" xmlns="http://www.w3.org/2000/svg" opacity="0.05">
<mask id="path-1-inside-1_120_1075" fill="white">
<path fill-rule="evenodd" clip-rule="evenodd" d="M0 339H1082.96C1065.48 238.445 977.965 162 872.641 162C834.651 162 798.978 171.946 768.073 189.381C747.904 81.5771 653.505 0 540.098 0C422.557 0 325.436 87.6318 310.215 201.271C279.774 184.524 244.817 175 207.641 175C106.905 175 22.4643 244.93 0 339Z"/>
</mask>
<path fill-rule="evenodd" clip-rule="evenodd" d="M0 339H1082.96C1065.48 238.445 977.965 162 872.641 162C834.651 162 798.978 171.946 768.073 189.381C747.904 81.5771 653.505 0 540.098 0C422.557 0 325.436 87.6318 310.215 201.271C279.774 184.524 244.817 175 207.641 175C106.905 175 22.4643 244.93 0 339Z" fill="white"/>
<path d="M0 339L-0.972651 338.768L-1.26692 340H0V339ZM1082.96 339V340H1084.15L1083.95 338.829L1082.96 339ZM768.073 189.381L767.09 189.565L767.347 190.939L768.564 190.252L768.073 189.381ZM310.215 201.271L309.733 202.147L311.013 202.85L311.207 201.403L310.215 201.271ZM0 340H1082.96V338H0V340ZM872.641 163C977.469 163 1064.57 239.085 1081.98 339.171L1083.95 338.829C1066.38 237.805 978.461 161 872.641 161V163ZM768.564 190.252C799.323 172.899 834.827 163 872.641 163V161C834.474 161 798.633 170.993 767.582 188.51L768.564 190.252ZM540.098 1C653.013 1 747.007 82.2239 767.09 189.565L769.056 189.197C748.8 80.9304 653.997 -1 540.098 -1V1ZM311.207 201.403C326.361 88.2527 423.066 1 540.098 1V-1C422.047 -1 324.51 87.011 309.224 201.138L311.207 201.403ZM207.641 176C244.644 176 279.436 185.479 309.733 202.147L310.697 200.394C280.112 183.569 244.99 174 207.641 174V176ZM0.972651 339.232C23.3322 245.6 107.38 176 207.641 176V174C106.431 174 21.5963 244.259 -0.972651 338.768L0.972651 339.232Z" fill="#E5DCB4" mask="url(#path-1-inside-1_120_1075)"/>
</svg>
