<svg width="397" height="413" viewBox="0 0 397 413" fill="none" xmlns="http://www.w3.org/2000/svg">
<path d="M84.9239 329.145C84.9239 329.494 84.6418 329.777 84.294 329.777C84.13 329.78 83.9718 329.715 83.8538 329.596C83.7359 329.478 83.6679 329.315 83.6648 329.145C83.6648 328.795 83.9469 328.512 84.294 328.512C84.6418 328.512 84.9239 328.795 84.9239 329.145Z" fill="white" fill-opacity="0.4"/>
<path d="M102.225 324.768C102.222 324.939 102.154 325.101 102.036 325.22C101.918 325.339 101.76 325.404 101.596 325.401C101.431 325.404 101.273 325.339 101.155 325.22C101.036 325.102 100.968 324.939 100.966 324.768C100.966 324.419 101.248 324.136 101.596 324.136C101.943 324.136 102.225 324.419 102.225 324.768Z" fill="white" fill-opacity="0.4"/>
<path d="M198.04 378.978C198.04 379.328 197.758 379.61 197.41 379.61C197.329 379.612 197.248 379.597 197.173 379.566C197.097 379.535 197.028 379.489 196.97 379.43C196.911 379.371 196.865 379.301 196.832 379.224C196.8 379.146 196.783 379.063 196.781 378.978C196.783 378.894 196.8 378.81 196.832 378.733C196.865 378.655 196.911 378.585 196.97 378.526C197.028 378.468 197.097 378.421 197.173 378.39C197.248 378.359 197.329 378.344 197.41 378.346C197.758 378.346 198.04 378.629 198.04 378.978Z" fill="white" fill-opacity="0.4"/>
<path d="M260.632 340.89C260.631 340.975 260.614 341.058 260.581 341.136C260.549 341.213 260.502 341.283 260.444 341.342C260.385 341.401 260.316 341.447 260.241 341.478C260.165 341.509 260.084 341.524 260.003 341.522C259.655 341.522 259.373 341.24 259.373 340.89C259.373 340.541 259.655 340.258 260.003 340.258C260.084 340.256 260.165 340.272 260.241 340.302C260.316 340.333 260.385 340.38 260.444 340.438C260.502 340.497 260.549 340.567 260.581 340.645C260.614 340.722 260.631 340.806 260.632 340.89Z" fill="white" fill-opacity="0.4"/>
<path d="M238.782 367.558C238.779 367.729 238.711 367.892 238.593 368.01C238.474 368.129 238.316 368.194 238.152 368.191C238.07 368.193 237.99 368.177 237.914 368.146C237.838 368.115 237.769 368.069 237.711 368.01C237.653 367.952 237.606 367.881 237.573 367.804C237.541 367.726 237.524 367.643 237.522 367.558C237.524 367.474 237.541 367.39 237.573 367.313C237.606 367.235 237.653 367.165 237.711 367.106C237.769 367.048 237.838 367.001 237.914 366.97C237.99 366.94 238.07 366.924 238.152 366.926C238.5 366.926 238.782 367.209 238.782 367.558Z" fill="white" fill-opacity="0.4"/>
<path d="M194.707 308.725C194.705 308.81 194.688 308.893 194.656 308.971C194.623 309.048 194.576 309.118 194.518 309.177C194.46 309.236 194.391 309.282 194.315 309.313C194.239 309.344 194.159 309.359 194.077 309.357C193.996 309.359 193.915 309.344 193.84 309.313C193.764 309.282 193.695 309.236 193.637 309.177C193.578 309.118 193.532 309.048 193.499 308.971C193.467 308.893 193.45 308.81 193.448 308.725C193.45 308.641 193.467 308.557 193.499 308.48C193.532 308.402 193.578 308.332 193.637 308.273C193.695 308.215 193.764 308.168 193.84 308.137C193.915 308.106 193.996 308.091 194.077 308.093C194.159 308.091 194.239 308.106 194.315 308.137C194.391 308.168 194.46 308.215 194.518 308.273C194.576 308.332 194.623 308.402 194.656 308.48C194.688 308.557 194.705 308.641 194.707 308.725Z" fill="white" fill-opacity="0.4"/>
<path d="M127.637 182.665C127.635 182.749 127.618 182.833 127.586 182.91C127.553 182.988 127.507 183.058 127.448 183.116C127.39 183.175 127.321 183.221 127.245 183.252C127.17 183.283 127.089 183.298 127.008 183.297C126.926 183.298 126.846 183.283 126.77 183.252C126.694 183.221 126.625 183.175 126.567 183.116C126.509 183.058 126.462 182.988 126.429 182.91C126.397 182.833 126.38 182.749 126.378 182.665C126.38 182.58 126.397 182.497 126.429 182.419C126.462 182.342 126.509 182.271 126.567 182.213C126.625 182.154 126.694 182.108 126.77 182.077C126.846 182.046 126.926 182.031 127.008 182.032C127.089 182.031 127.17 182.046 127.245 182.077C127.321 182.108 127.39 182.154 127.448 182.213C127.507 182.271 127.553 182.342 127.586 182.419C127.618 182.497 127.635 182.58 127.637 182.665Z" fill="white" fill-opacity="0.4"/>
<path d="M165.764 232.109C165.762 232.193 165.745 232.277 165.713 232.354C165.68 232.432 165.634 232.502 165.575 232.561C165.517 232.62 165.448 232.666 165.372 232.697C165.297 232.728 165.216 232.743 165.135 232.741C165.053 232.743 164.973 232.728 164.897 232.697C164.821 232.666 164.752 232.62 164.694 232.561C164.636 232.502 164.589 232.432 164.556 232.354C164.524 232.277 164.507 232.193 164.505 232.109C164.507 232.024 164.524 231.941 164.556 231.863C164.589 231.786 164.636 231.716 164.694 231.657C164.752 231.598 164.821 231.552 164.897 231.521C164.973 231.49 165.053 231.475 165.135 231.477C165.216 231.475 165.297 231.49 165.372 231.521C165.448 231.552 165.517 231.598 165.575 231.657C165.634 231.716 165.68 231.786 165.713 231.863C165.745 231.941 165.762 232.024 165.764 232.109Z" fill="white" fill-opacity="0.4"/>
<path d="M185.097 201.931C185.096 202.016 185.078 202.099 185.046 202.177C185.014 202.254 184.967 202.325 184.908 202.383C184.85 202.442 184.781 202.488 184.705 202.519C184.63 202.55 184.549 202.566 184.468 202.564C184.387 202.566 184.306 202.55 184.23 202.519C184.155 202.488 184.086 202.442 184.027 202.383C183.969 202.325 183.922 202.254 183.89 202.177C183.857 202.099 183.84 202.016 183.839 201.931C183.84 201.847 183.857 201.763 183.89 201.686C183.922 201.608 183.969 201.538 184.027 201.479C184.086 201.421 184.155 201.374 184.23 201.344C184.306 201.313 184.387 201.297 184.468 201.299C184.549 201.297 184.63 201.313 184.705 201.344C184.781 201.374 184.85 201.421 184.908 201.479C184.967 201.538 185.014 201.608 185.046 201.686C185.078 201.763 185.096 201.847 185.097 201.931Z" fill="white" fill-opacity="0.4"/>
<path d="M64.7808 251.804C64.7795 251.889 64.7621 251.972 64.7298 252.05C64.6974 252.127 64.6507 252.197 64.5922 252.256C64.5338 252.315 64.4648 252.361 64.3892 252.392C64.3136 252.423 64.2329 252.438 64.1516 252.437C64.0704 252.438 63.9897 252.423 63.9141 252.392C63.8385 252.361 63.7695 252.315 63.711 252.256C63.6526 252.197 63.6059 252.127 63.5735 252.05C63.5411 251.972 63.5238 251.889 63.5225 251.804C63.5238 251.72 63.5411 251.636 63.5735 251.559C63.6059 251.481 63.6526 251.411 63.711 251.352C63.7695 251.294 63.8385 251.248 63.9141 251.217C63.9897 251.186 64.0704 251.17 64.1516 251.172C64.2329 251.17 64.3136 251.186 64.3892 251.217C64.4648 251.248 64.5338 251.294 64.5922 251.352C64.6507 251.411 64.6974 251.481 64.7298 251.559C64.7621 251.636 64.7795 251.72 64.7808 251.804Z" fill="white" fill-opacity="0.4"/>
<path d="M92.2972 279.632C92.2943 279.803 92.2264 279.965 92.1085 280.084C91.9905 280.203 91.8321 280.268 91.6681 280.265C91.5038 280.268 91.3452 280.203 91.2271 280.084C91.109 279.966 91.041 279.803 91.0381 279.632C91.0381 279.284 91.3202 279 91.6681 279C92.0151 279 92.2972 279.284 92.2972 279.632Z" fill="white" fill-opacity="0.4"/>
<path d="M52.7313 307.46C52.7283 307.63 52.6605 307.793 52.5425 307.911C52.4246 308.03 52.2662 308.095 52.1021 308.093C51.938 308.095 51.7796 308.03 51.6617 307.911C51.5437 307.793 51.4758 307.63 51.4729 307.46C51.4742 307.375 51.4916 307.292 51.5239 307.214C51.5563 307.137 51.603 307.066 51.6615 307.008C51.7199 306.949 51.7889 306.903 51.8645 306.872C51.9401 306.841 52.0208 306.826 52.1021 306.827C52.1833 306.826 52.264 306.841 52.3397 306.872C52.4153 306.903 52.4842 306.949 52.5427 307.008C52.6011 307.066 52.6479 307.137 52.6802 307.214C52.7126 307.292 52.7299 307.375 52.7313 307.46Z" fill="white" fill-opacity="0.4"/>
<path d="M32.5887 320.155C32.5858 320.325 32.5179 320.488 32.4 320.607C32.282 320.725 32.1236 320.791 31.9596 320.788C31.7953 320.791 31.6367 320.726 31.5186 320.607C31.4005 320.488 31.3325 320.326 31.3296 320.155C31.3296 319.806 31.6117 319.522 31.9596 319.522C32.3066 319.522 32.5887 319.806 32.5887 320.155Z" fill="white" fill-opacity="0.4"/>
<path d="M253.978 296.302C253.977 296.387 253.959 296.47 253.927 296.547C253.894 296.625 253.848 296.695 253.789 296.754C253.731 296.813 253.662 296.859 253.586 296.89C253.511 296.921 253.43 296.936 253.349 296.934C253.267 296.936 253.187 296.921 253.111 296.89C253.035 296.859 252.966 296.813 252.908 296.754C252.85 296.695 252.803 296.625 252.771 296.547C252.738 296.47 252.721 296.387 252.719 296.302C252.719 295.952 253.001 295.669 253.349 295.669C253.697 295.669 253.978 295.952 253.978 296.302Z" fill="white" fill-opacity="0.4"/>
<path d="M334.099 286.906C334.098 286.99 334.08 287.074 334.048 287.151C334.016 287.229 333.969 287.299 333.91 287.358C333.852 287.416 333.783 287.463 333.707 287.494C333.632 287.524 333.551 287.54 333.47 287.538C333.389 287.54 333.308 287.524 333.232 287.494C333.157 287.463 333.088 287.416 333.029 287.358C332.971 287.299 332.924 287.229 332.892 287.151C332.859 287.074 332.842 286.99 332.841 286.906C332.842 286.821 332.859 286.738 332.892 286.66C332.924 286.583 332.971 286.513 333.029 286.454C333.088 286.395 333.157 286.349 333.232 286.318C333.308 286.287 333.389 286.272 333.47 286.274C333.551 286.272 333.632 286.287 333.707 286.318C333.783 286.349 333.852 286.395 333.91 286.454C333.969 286.513 334.016 286.583 334.048 286.66C334.08 286.738 334.098 286.821 334.099 286.906Z" fill="white" fill-opacity="0.4"/>
<path d="M243.907 291.559C243.907 291.908 243.625 292.191 243.277 292.191C243.113 292.194 242.955 292.129 242.837 292.01C242.719 291.892 242.651 291.729 242.648 291.559C242.648 291.209 242.93 290.926 243.277 290.926C243.625 290.926 243.907 291.209 243.907 291.559Z" fill="white" fill-opacity="0.4"/>
<path d="M171.25 110.136C171.25 110.485 170.968 110.769 170.62 110.769C170.456 110.771 170.297 110.706 170.18 110.588C170.062 110.469 169.994 110.307 169.99 110.136C169.992 110.052 170.009 109.968 170.042 109.891C170.074 109.813 170.121 109.743 170.179 109.684C170.237 109.626 170.306 109.58 170.382 109.549C170.458 109.518 170.538 109.502 170.62 109.504C170.968 109.504 171.25 109.787 171.25 110.136Z" fill="white" fill-opacity="0.4"/>
<path d="M238.152 140.494C238.15 140.578 238.133 140.662 238.101 140.739C238.068 140.817 238.022 140.887 237.963 140.946C237.905 141.004 237.836 141.05 237.76 141.081C237.685 141.112 237.604 141.128 237.523 141.126C237.175 141.126 236.893 140.842 236.893 140.494C236.893 140.144 237.175 139.861 237.523 139.861C237.604 139.86 237.685 139.875 237.76 139.906C237.836 139.937 237.905 139.983 237.963 140.042C238.022 140.101 238.068 140.171 238.101 140.248C238.133 140.326 238.15 140.409 238.152 140.494Z" fill="white" fill-opacity="0.4"/>
<path d="M252.719 170.287C252.719 170.636 252.437 170.92 252.089 170.92C251.925 170.922 251.767 170.857 251.649 170.739C251.531 170.62 251.463 170.458 251.46 170.287C251.46 169.938 251.742 169.654 252.089 169.654C252.437 169.654 252.719 169.938 252.719 170.287Z" fill="white" fill-opacity="0.4"/>
<path d="M53.9903 56.4458C53.989 56.5303 53.9717 56.6138 53.9393 56.6913C53.907 56.7689 53.8603 56.8391 53.8018 56.8979C53.7434 56.9567 53.6744 57.0029 53.5988 57.034C53.5232 57.065 53.4424 57.0803 53.3612 57.0789C53.2798 57.0804 53.199 57.0652 53.1233 57.0342C53.0476 57.0032 52.9785 56.957 52.92 56.8982C52.8615 56.8394 52.8147 56.7692 52.7823 56.6915C52.7499 56.6139 52.7325 56.5304 52.7312 56.4458C52.7312 56.0971 53.0133 55.8135 53.3612 55.8135C53.7082 55.8135 53.9903 56.0971 53.9903 56.4458Z" fill="white" fill-opacity="0.4"/>
<path d="M99.3111 76.9039C99.3098 76.9884 99.2924 77.0718 99.26 77.1493C99.2277 77.2269 99.181 77.297 99.1225 77.3557C99.0641 77.4144 98.9951 77.4606 98.9195 77.4916C98.8439 77.5225 98.7631 77.5377 98.6819 77.5361C98.6007 77.5377 98.5199 77.5225 98.4443 77.4916C98.3687 77.4606 98.2998 77.4144 98.2413 77.3557C98.1829 77.297 98.1361 77.2269 98.1038 77.1493C98.0714 77.0718 98.0541 76.9884 98.0527 76.9039C98.0541 76.8194 98.0714 76.7359 98.1038 76.6584C98.1361 76.5809 98.1829 76.5107 98.2413 76.452C98.2998 76.3933 98.3687 76.3471 98.4443 76.3162C98.5199 76.2852 98.6007 76.2701 98.6819 76.2716C98.7631 76.2701 98.8439 76.2852 98.9195 76.3162C98.9951 76.3471 99.0641 76.3933 99.1225 76.452C99.181 76.5107 99.2277 76.5809 99.26 76.6584C99.2924 76.7359 99.3098 76.8194 99.3111 76.9039Z" fill="white" fill-opacity="0.4"/>
<path d="M112.26 217.321C112.258 217.405 112.241 217.489 112.209 217.566C112.176 217.644 112.13 217.714 112.071 217.773C112.013 217.831 111.944 217.878 111.868 217.909C111.793 217.94 111.712 217.955 111.631 217.953C111.549 217.955 111.469 217.94 111.393 217.909C111.317 217.878 111.248 217.831 111.19 217.773C111.132 217.714 111.085 217.644 111.053 217.566C111.02 217.489 111.003 217.405 111.001 217.321C111.003 217.236 111.02 217.153 111.053 217.075C111.085 216.998 111.132 216.928 111.19 216.869C111.248 216.81 111.317 216.764 111.393 216.733C111.469 216.702 111.549 216.687 111.631 216.689C111.712 216.687 111.793 216.702 111.868 216.733C111.944 216.764 112.013 216.81 112.071 216.869C112.13 216.928 112.176 216.998 112.209 217.075C112.241 217.153 112.258 217.236 112.26 217.321Z" fill="white" fill-opacity="0.4"/>
<path d="M186.356 264.092C186.355 264.177 186.338 264.26 186.305 264.338C186.273 264.415 186.226 264.485 186.168 264.544C186.109 264.603 186.04 264.649 185.965 264.68C185.889 264.711 185.808 264.726 185.727 264.725C185.379 264.725 185.097 264.442 185.097 264.092C185.097 263.743 185.379 263.46 185.727 263.46C185.808 263.459 185.889 263.474 185.965 263.505C186.04 263.536 186.109 263.582 186.168 263.64C186.226 263.699 186.273 263.769 186.305 263.847C186.338 263.924 186.355 264.008 186.356 264.092Z" fill="white" fill-opacity="0.4"/>
<path d="M103.484 116.01C103.481 116.181 103.413 116.344 103.295 116.462C103.177 116.581 103.018 116.646 102.854 116.643C102.69 116.646 102.531 116.581 102.413 116.462C102.295 116.343 102.228 116.181 102.225 116.01C102.225 115.662 102.507 115.378 102.854 115.378C103.202 115.378 103.484 115.662 103.484 116.01Z" fill="white" fill-opacity="0.4"/>
<path d="M55.2496 151.191C55.2483 151.276 55.2309 151.359 55.1985 151.437C55.1661 151.514 55.1193 151.584 55.0608 151.643C55.0023 151.702 54.9332 151.748 54.8575 151.779C54.7818 151.81 54.701 151.825 54.6197 151.823C54.5384 151.825 54.4577 151.81 54.3821 151.779C54.3065 151.748 54.2375 151.702 54.1791 151.643C54.1206 151.584 54.0739 151.514 54.0415 151.436C54.0092 151.359 53.9918 151.275 53.9905 151.191C53.9918 151.106 54.0092 151.023 54.0415 150.946C54.0739 150.868 54.1206 150.798 54.1791 150.739C54.2375 150.68 54.3065 150.634 54.3821 150.603C54.4577 150.572 54.5384 150.557 54.6197 150.559C54.701 150.557 54.7818 150.572 54.8575 150.603C54.9332 150.634 55.0023 150.68 55.0608 150.739C55.1193 150.798 55.1661 150.868 55.1985 150.945C55.2309 151.023 55.2483 151.106 55.2496 151.191Z" fill="white" fill-opacity="0.4"/>
<path d="M43.9188 98.0074C43.9174 98.0919 43.9001 98.1753 43.8677 98.2528C43.8354 98.3304 43.7886 98.4005 43.7302 98.4592C43.6717 98.518 43.6028 98.5641 43.5272 98.5951C43.4515 98.626 43.3708 98.6412 43.2896 98.6397C43.2083 98.6412 43.1276 98.626 43.052 98.5951C42.9764 98.5641 42.9074 98.518 42.849 98.4592C42.7905 98.4005 42.7438 98.3304 42.7114 98.2528C42.6791 98.1753 42.6617 98.0919 42.6604 98.0074C42.6617 97.9229 42.6791 97.8395 42.7114 97.7619C42.7438 97.6844 42.7905 97.6143 42.849 97.5555C42.9074 97.4968 42.9764 97.4506 43.052 97.4197C43.1276 97.3887 43.2083 97.3736 43.2896 97.3751C43.3708 97.3736 43.4515 97.3887 43.5272 97.4197C43.6028 97.4506 43.6717 97.4968 43.7302 97.5555C43.7886 97.6143 43.8354 97.6844 43.8677 97.7619C43.9001 97.8395 43.9174 97.9229 43.9188 98.0074Z" fill="white" fill-opacity="0.4"/>
<path d="M74.8524 195.223C74.8495 195.394 74.7816 195.556 74.6636 195.675C74.5456 195.793 74.3872 195.858 74.2232 195.855C74.142 195.857 74.0612 195.842 73.9855 195.811C73.9099 195.78 73.8408 195.734 73.7823 195.675C73.7238 195.616 73.677 195.546 73.6446 195.468C73.6122 195.391 73.5947 195.308 73.5933 195.223C73.5933 194.873 73.8754 194.59 74.2232 194.59C74.5711 194.59 74.8524 194.873 74.8524 195.223Z" fill="white" fill-opacity="0.4"/>
<path d="M157.401 120.255C157.4 120.34 157.383 120.423 157.35 120.501C157.318 120.578 157.271 120.649 157.213 120.707C157.154 120.766 157.085 120.812 157.01 120.843C156.934 120.874 156.853 120.889 156.772 120.888C156.424 120.888 156.142 120.605 156.142 120.255C156.142 119.906 156.424 119.623 156.772 119.623C156.853 119.622 156.934 119.637 157.01 119.668C157.085 119.699 157.154 119.745 157.213 119.804C157.271 119.862 157.318 119.932 157.35 120.01C157.383 120.088 157.4 120.171 157.401 120.255Z" fill="white" fill-opacity="0.4"/>
<path d="M261.891 102.908C261.891 103.257 261.609 103.541 261.262 103.541C261.098 103.543 260.939 103.478 260.821 103.36C260.703 103.241 260.635 103.079 260.632 102.908C260.632 102.559 260.914 102.275 261.262 102.275C261.609 102.275 261.891 102.559 261.891 102.908Z" fill="white" fill-opacity="0.4"/>
<path d="M217.11 188.898C217.107 189.069 217.039 189.231 216.921 189.35C216.803 189.468 216.645 189.534 216.481 189.531C216.316 189.534 216.158 189.469 216.04 189.35C215.921 189.231 215.854 189.069 215.851 188.898C215.851 188.549 216.133 188.266 216.481 188.266C216.828 188.266 217.11 188.549 217.11 188.898Z" fill="white" fill-opacity="0.4"/>
<path d="M313.147 217.954C313.144 218.124 313.076 218.287 312.958 218.406C312.84 218.524 312.682 218.59 312.517 218.587C312.353 218.589 312.195 218.524 312.077 218.405C311.959 218.287 311.891 218.124 311.888 217.954C311.888 217.605 312.17 217.321 312.517 217.321C312.865 217.321 313.147 217.605 313.147 217.954Z" fill="white" fill-opacity="0.4"/>
<path d="M242.648 117.276C242.645 117.446 242.577 117.609 242.459 117.727C242.341 117.846 242.183 117.911 242.019 117.908C241.671 117.908 241.389 117.625 241.389 117.276C241.389 116.926 241.671 116.644 242.019 116.644C242.1 116.642 242.181 116.657 242.256 116.688C242.332 116.719 242.401 116.765 242.459 116.824C242.518 116.883 242.564 116.953 242.597 117.03C242.629 117.108 242.646 117.191 242.648 117.276Z" fill="white" fill-opacity="0.4"/>
<path d="M233.296 63.5123C233.294 63.5968 233.277 63.6803 233.245 63.758C233.213 63.8356 233.166 63.9058 233.107 63.9646C233.049 64.0235 232.98 64.0697 232.904 64.1007C232.829 64.1317 232.748 64.1469 232.667 64.1454C232.585 64.1469 232.504 64.1317 232.429 64.1007C232.353 64.0697 232.284 64.0235 232.226 63.9646C232.167 63.9058 232.12 63.8356 232.088 63.758C232.056 63.6803 232.039 63.5968 232.037 63.5123C232.039 63.4278 232.056 63.3443 232.088 63.2668C232.121 63.1893 232.167 63.1191 232.226 63.0604C232.284 63.0017 232.353 62.9555 232.429 62.9246C232.505 62.8936 232.585 62.8785 232.667 62.88C232.748 62.8785 232.829 62.8936 232.904 62.9246C232.98 62.9555 233.049 63.0017 233.107 63.0604C233.166 63.1191 233.212 63.1893 233.245 63.2668C233.277 63.3443 233.294 63.4278 233.296 63.5123Z" fill="white" fill-opacity="0.4"/>
<path d="M211.984 42.5513C211.983 42.6359 211.966 42.7193 211.933 42.7968C211.901 42.8744 211.854 42.9445 211.795 43.0032C211.737 43.0619 211.668 43.1081 211.592 43.139C211.517 43.17 211.436 43.1851 211.355 43.1836C211.191 43.1865 211.032 43.1215 210.914 43.0029C210.796 42.8844 210.728 42.7219 210.725 42.5513C210.727 42.4668 210.744 42.3834 210.776 42.3059C210.809 42.2283 210.855 42.1582 210.914 42.0995C210.972 42.0408 211.041 41.9946 211.117 41.9636C211.193 41.9327 211.273 41.9175 211.355 41.9191C211.702 41.9191 211.984 42.2018 211.984 42.5513Z" fill="white" fill-opacity="0.4"/>
<path d="M303.728 91.1186C303.728 91.4681 303.446 91.7509 303.098 91.7509C303.017 91.7524 302.936 91.7373 302.86 91.7063C302.785 91.6753 302.716 91.6292 302.657 91.5705C302.599 91.5117 302.552 91.4416 302.52 91.3641C302.487 91.2865 302.47 91.2031 302.469 91.1186C302.469 90.7699 302.751 90.4863 303.098 90.4863C303.446 90.4863 303.728 90.7699 303.728 91.1186Z" fill="white" fill-opacity="0.4"/>
<path d="M292.286 63.5122C292.283 63.683 292.215 63.8456 292.096 63.9643C291.978 64.0831 291.82 64.1481 291.656 64.1453C291.574 64.1467 291.494 64.1314 291.418 64.1004C291.342 64.0693 291.273 64.0231 291.215 63.9643C291.156 63.9055 291.11 63.8353 291.077 63.7577C291.045 63.6802 291.028 63.5967 291.026 63.5122C291.026 63.1635 291.308 62.8799 291.656 62.8799C292.003 62.8799 292.286 63.1635 292.286 63.5122Z" fill="white" fill-opacity="0.4"/>
<path d="M359.907 99.271C359.906 99.3555 359.888 99.4389 359.856 99.5164C359.824 99.5939 359.777 99.6641 359.719 99.7228C359.66 99.7815 359.591 99.8277 359.515 99.8586C359.44 99.8896 359.359 99.9048 359.278 99.9032C358.93 99.9032 358.648 99.6205 358.648 99.271C358.648 98.9223 358.93 98.6387 359.278 98.6387C359.625 98.6387 359.907 98.9223 359.907 99.271Z" fill="white" fill-opacity="0.4"/>
<path d="M325.034 171.551C325.032 171.636 325.015 171.719 324.983 171.797C324.95 171.874 324.904 171.944 324.845 172.003C324.787 172.062 324.718 172.108 324.642 172.139C324.567 172.17 324.486 172.185 324.405 172.184C324.323 172.185 324.243 172.17 324.167 172.139C324.091 172.108 324.022 172.062 323.964 172.003C323.906 171.944 323.859 171.874 323.826 171.797C323.794 171.719 323.777 171.636 323.775 171.551C323.777 171.467 323.794 171.383 323.826 171.306C323.859 171.228 323.906 171.158 323.964 171.099C324.022 171.041 324.091 170.995 324.167 170.964C324.243 170.933 324.323 170.918 324.405 170.919C324.486 170.918 324.567 170.933 324.642 170.964C324.718 170.995 324.787 171.041 324.845 171.099C324.904 171.158 324.95 171.228 324.983 171.306C325.015 171.383 325.032 171.467 325.034 171.551Z" fill="white" fill-opacity="0.4"/>
<path d="M248.06 234.999C248.057 235.17 247.989 235.333 247.871 235.451C247.753 235.57 247.595 235.635 247.431 235.633C247.267 235.635 247.108 235.57 246.99 235.452C246.872 235.333 246.804 235.17 246.801 234.999C246.801 234.651 247.083 234.367 247.431 234.367C247.778 234.367 248.06 234.651 248.06 234.999Z" fill="white" fill-opacity="0.4"/>
<path d="M342.299 103.382C342.297 103.467 342.28 103.55 342.248 103.628C342.215 103.705 342.169 103.776 342.11 103.834C342.052 103.893 341.983 103.939 341.907 103.97C341.831 104.001 341.751 104.016 341.669 104.015C341.588 104.016 341.507 104.001 341.432 103.97C341.356 103.939 341.287 103.893 341.229 103.834C341.17 103.776 341.124 103.705 341.091 103.628C341.059 103.55 341.042 103.467 341.04 103.382C341.042 103.298 341.059 103.214 341.091 103.137C341.124 103.059 341.17 102.989 341.229 102.931C341.287 102.872 341.356 102.826 341.432 102.795C341.507 102.764 341.588 102.749 341.669 102.75C341.751 102.749 341.831 102.764 341.907 102.795C341.983 102.826 342.052 102.872 342.11 102.931C342.169 102.989 342.215 103.059 342.248 103.137C342.28 103.214 342.297 103.298 342.299 103.382Z" fill="white" fill-opacity="0.4"/>
<path d="M335.987 188.898C335.986 188.983 335.968 189.066 335.936 189.144C335.904 189.221 335.857 189.291 335.799 189.35C335.74 189.409 335.671 189.455 335.596 189.486C335.52 189.517 335.439 189.533 335.358 189.531C335.277 189.533 335.196 189.517 335.12 189.486C335.045 189.455 334.976 189.409 334.917 189.35C334.859 189.291 334.812 189.221 334.78 189.144C334.747 189.066 334.73 188.983 334.729 188.898C334.73 188.814 334.747 188.73 334.78 188.653C334.812 188.575 334.859 188.505 334.917 188.446C334.976 188.387 335.045 188.341 335.12 188.31C335.196 188.279 335.277 188.264 335.358 188.266C335.439 188.264 335.52 188.279 335.596 188.31C335.671 188.341 335.74 188.387 335.799 188.446C335.857 188.505 335.904 188.575 335.936 188.653C335.968 188.73 335.986 188.814 335.987 188.898Z" fill="white" fill-opacity="0.4"/>
<path d="M271.378 259.349C271.378 259.699 271.096 259.981 270.748 259.981C270.667 259.983 270.586 259.968 270.511 259.937C270.435 259.906 270.366 259.86 270.308 259.801C270.249 259.742 270.203 259.672 270.17 259.595C270.138 259.517 270.12 259.434 270.119 259.349C270.12 259.265 270.138 259.181 270.17 259.104C270.203 259.026 270.249 258.956 270.308 258.897C270.366 258.839 270.435 258.792 270.511 258.761C270.586 258.731 270.667 258.715 270.748 258.717C271.096 258.717 271.378 259 271.378 259.349Z" fill="white" fill-opacity="0.4"/>
<path d="M334.729 49.3997C334.726 49.5704 334.658 49.7328 334.54 49.8514C334.421 49.9699 334.263 50.0348 334.099 50.032C333.935 50.0348 333.777 49.9699 333.659 49.8513C333.541 49.7328 333.473 49.5703 333.47 49.3997C333.47 49.0502 333.752 48.7666 334.099 48.7666C334.447 48.7666 334.729 49.0502 334.729 49.3997Z" fill="white" fill-opacity="0.4"/>
<path d="M279.561 154.046C279.56 154.131 279.542 154.214 279.51 154.292C279.477 154.369 279.431 154.44 279.372 154.498C279.314 154.557 279.245 154.603 279.169 154.634C279.094 154.665 279.013 154.68 278.932 154.679C278.85 154.68 278.77 154.665 278.694 154.634C278.618 154.603 278.55 154.557 278.491 154.498C278.433 154.44 278.386 154.369 278.354 154.292C278.321 154.214 278.304 154.131 278.302 154.046C278.304 153.962 278.321 153.879 278.354 153.801C278.386 153.723 278.433 153.653 278.491 153.595C278.55 153.536 278.618 153.49 278.694 153.459C278.77 153.428 278.85 153.413 278.932 153.414C279.013 153.413 279.094 153.428 279.169 153.459C279.245 153.49 279.314 153.536 279.372 153.595C279.431 153.653 279.477 153.723 279.51 153.801C279.542 153.879 279.56 153.962 279.561 154.046Z" fill="white" fill-opacity="0.4"/>
<path d="M352.938 237.891C352.936 237.975 352.919 238.059 352.887 238.136C352.854 238.214 352.808 238.284 352.749 238.343C352.691 238.401 352.622 238.448 352.546 238.479C352.471 238.51 352.39 238.525 352.309 238.523C352.227 238.525 352.147 238.51 352.071 238.479C351.995 238.448 351.926 238.401 351.868 238.343C351.81 238.284 351.763 238.214 351.73 238.136C351.698 238.059 351.681 237.975 351.679 237.891C351.679 237.541 351.961 237.258 352.309 237.258C352.656 237.258 352.938 237.541 352.938 237.891Z" fill="white" fill-opacity="0.4"/>
<path d="M68.2428 102.276C68.2428 103.237 67.4678 104.015 66.5122 104.015C65.5557 104.015 64.7808 103.237 64.7808 102.276C64.7808 101.315 65.5557 100.537 66.5122 100.537C67.4678 100.537 68.2428 101.315 68.2428 102.276Z" fill="white" fill-opacity="0.4"/>
<path d="M189.818 160.823C189.818 161.784 189.043 162.563 188.088 162.563C187.131 162.563 186.356 161.784 186.356 160.823C186.356 159.863 187.131 159.084 188.088 159.084C189.043 159.084 189.818 159.863 189.818 160.823Z" fill="white" fill-opacity="0.4"/>
<path d="M154.884 293.931C154.884 294.891 154.108 295.669 153.153 295.669C152.197 295.669 151.422 294.891 151.422 293.931C151.422 292.97 152.197 292.191 153.153 292.191C154.108 292.191 154.884 292.97 154.884 293.931Z" fill="white" fill-opacity="0.4"/>
<path d="M56.351 348.998C56.351 349.959 55.576 350.738 54.6196 350.738C53.6639 350.738 52.8889 349.959 52.8889 348.998C52.8889 348.038 53.6639 347.26 54.6196 347.26C55.576 347.26 56.351 348.038 56.351 348.998Z" fill="white" fill-opacity="0.4"/>
<path d="M274.84 214.317C274.84 215.278 274.066 216.057 273.109 216.057C272.153 216.057 271.378 215.278 271.378 214.317C271.378 213.357 272.153 212.578 273.109 212.578C274.066 212.578 274.84 213.357 274.84 214.317Z" fill="white" fill-opacity="0.4"/>
<path d="M302.469 344.526C302.469 345.487 301.694 346.266 300.738 346.266C299.782 346.266 299.007 345.487 299.007 344.526C299.007 343.566 299.782 342.787 300.738 342.787C301.694 342.787 302.469 343.566 302.469 344.526Z" fill="white" fill-opacity="0.4"/>
<path d="M318.722 261.721C318.722 262.681 317.947 263.46 316.991 263.46C316.036 263.46 315.26 262.681 315.26 261.721C315.26 260.76 316.036 259.981 316.991 259.981C317.947 259.981 318.722 260.76 318.722 261.721Z" fill="white" fill-opacity="0.4"/>
<path d="M215.446 350.31C215.446 351.27 214.671 352.049 213.715 352.049C212.759 352.049 211.984 351.27 211.984 350.31C211.984 349.349 212.759 348.57 213.715 348.57C214.671 348.57 215.446 349.349 215.446 350.31Z" fill="white" fill-opacity="0.4"/>
<path fill-rule="evenodd" clip-rule="evenodd" d="M216.105 231.732L210.351 237.514L209.842 237.003L215.596 231.221L216.105 231.732Z" fill="white" fill-opacity="0.4"/>
<path fill-rule="evenodd" clip-rule="evenodd" d="M101.895 152.075L96.2126 146.221L96.7277 145.717L102.41 151.571L101.895 152.075Z" fill="white" fill-opacity="0.4"/>
<path fill-rule="evenodd" clip-rule="evenodd" d="M308.181 323.429L301.515 318.737L301.927 318.146L308.593 322.837L308.181 323.429Z" fill="white" fill-opacity="0.4"/>
<path fill-rule="evenodd" clip-rule="evenodd" d="M200.538 66.7862L193.872 62.0956L194.284 61.5029L200.95 66.1935L200.538 66.7862Z" fill="white" fill-opacity="0.4"/>
<path fill-rule="evenodd" clip-rule="evenodd" d="M322.27 73.6172L320.546 81.6093L319.843 81.456L321.567 73.4639L322.27 73.6172Z" fill="white" fill-opacity="0.4"/>
<path d="M127.007 253.252C127.006 253.336 126.989 253.419 126.956 253.497C126.924 253.575 126.877 253.645 126.819 253.703C126.76 253.762 126.691 253.808 126.616 253.839C126.54 253.87 126.459 253.885 126.378 253.884C126.03 253.884 125.748 253.601 125.748 253.252C125.748 252.902 126.03 252.619 126.378 252.619C126.459 252.618 126.54 252.633 126.616 252.664C126.691 252.695 126.76 252.741 126.819 252.8C126.877 252.858 126.924 252.929 126.956 253.006C126.989 253.084 127.006 253.167 127.007 253.252Z" fill="white" fill-opacity="0.4"/>
<path d="M91.0381 342.154C91.0368 342.238 91.0195 342.322 90.9871 342.399C90.9547 342.477 90.908 342.547 90.8496 342.606C90.7911 342.664 90.7221 342.711 90.6465 342.742C90.5709 342.773 90.4902 342.788 90.409 342.786C90.3277 342.788 90.247 342.773 90.1714 342.742C90.0958 342.711 90.0268 342.664 89.9684 342.606C89.9099 342.547 89.8632 342.477 89.8308 342.399C89.7985 342.322 89.7811 342.238 89.7798 342.154C89.7811 342.069 89.7985 341.986 89.8308 341.908C89.8632 341.831 89.9099 341.761 89.9684 341.702C90.0268 341.643 90.0958 341.597 90.1714 341.566C90.247 341.535 90.3277 341.52 90.409 341.522C90.4902 341.52 90.5709 341.535 90.6465 341.566C90.7221 341.597 90.7911 341.643 90.8496 341.702C90.908 341.761 90.9547 341.831 90.9871 341.908C91.0195 341.986 91.0368 342.069 91.0381 342.154Z" fill="white" fill-opacity="0.4"/>
<path d="M309.46 119.648C309.46 120.608 308.685 121.387 307.73 121.387C306.773 121.387 305.998 120.608 305.998 119.648C305.998 118.687 306.773 117.908 307.73 117.908C308.685 117.908 309.46 118.687 309.46 119.648Z" fill="white" fill-opacity="0.4"/>
<path d="M94.5002 237.892C94.5002 238.852 93.7252 239.63 92.7695 239.63C91.8131 239.63 91.0381 238.852 91.0381 237.892C91.0381 236.931 91.8131 236.152 92.7695 236.152C93.7252 236.152 94.5002 236.931 94.5002 237.892Z" fill="white" fill-opacity="0.4"/>
<path d="M139.551 90.0118C139.551 90.9722 138.776 91.7504 137.821 91.7504C136.864 91.7504 136.089 90.9722 136.089 90.0118C136.089 89.0506 136.864 88.2725 137.821 88.2725C138.776 88.2725 139.551 89.0506 139.551 90.0118Z" fill="white" fill-opacity="0.4"/>
<path d="M37.31 190.705C37.31 191.667 36.5342 192.445 35.5785 192.445C34.6229 192.445 33.8479 191.667 33.8479 190.705C33.8479 189.745 34.6229 188.967 35.5785 188.967C36.5342 188.967 37.31 189.745 37.31 190.705Z" fill="white" fill-opacity="0.4"/>
<path fill-rule="evenodd" clip-rule="evenodd" d="M32.8431 245.646L27.0878 251.428L26.5791 250.917L32.3344 245.135L32.8431 245.646Z" fill="white" fill-opacity="0.4"/>
<path fill-rule="evenodd" clip-rule="evenodd" d="M152.56 202.187L146.804 207.97L146.296 207.459L152.051 201.676L152.56 202.187Z" fill="white" fill-opacity="0.4"/>
<path d="M16.0431 352.478C16.0431 353.438 15.2681 354.217 14.3117 354.217C13.356 354.217 12.5811 353.438 12.5811 352.478C12.5811 351.517 13.356 350.738 14.3117 350.738C15.2681 350.738 16.0431 351.517 16.0431 352.478Z" fill="white" fill-opacity="0.4"/>
<path d="M7.95031 294.45C7.94897 294.534 7.9316 294.618 7.89919 294.695C7.86679 294.773 7.81998 294.843 7.76146 294.902C7.70294 294.961 7.63385 295.007 7.55815 295.038C7.48246 295.069 7.40164 295.084 7.32034 295.082C7.2391 295.084 7.15837 295.068 7.08277 295.037C7.00717 295.007 6.93817 294.96 6.87973 294.902C6.8213 294.843 6.77456 294.773 6.74221 294.695C6.70985 294.618 6.6925 294.534 6.69116 294.45C6.6925 294.365 6.70985 294.282 6.74221 294.204C6.77456 294.127 6.8213 294.057 6.87973 293.998C6.93817 293.939 7.00717 293.893 7.08277 293.862C7.15837 293.831 7.2391 293.816 7.32034 293.818C7.40164 293.816 7.48246 293.831 7.55815 293.862C7.63385 293.893 7.70294 293.939 7.76146 293.998C7.81998 294.056 7.86679 294.127 7.89919 294.204C7.9316 294.282 7.94897 294.365 7.95031 294.45Z" fill="white" fill-opacity="0.4"/>
<path d="M17.3016 62.4312C17.3002 62.5158 17.2829 62.5992 17.2505 62.6768C17.2182 62.7544 17.1715 62.8246 17.113 62.8833C17.0546 62.9421 16.9856 62.9884 16.91 63.0194C16.8344 63.0505 16.7537 63.0657 16.6724 63.0643C16.5911 63.0657 16.5104 63.0505 16.4348 63.0194C16.3592 62.9884 16.2902 62.9421 16.2317 62.8833C16.1733 62.8246 16.1266 62.7544 16.0942 62.6768C16.0619 62.5992 16.0446 62.5158 16.0432 62.4312C16.0446 62.3467 16.0619 62.2633 16.0943 62.1858C16.1266 62.1082 16.1733 62.0381 16.2318 61.9794C16.2902 61.9206 16.3592 61.8745 16.4348 61.8435C16.5104 61.8126 16.5912 61.7974 16.6724 61.7989C16.7536 61.7974 16.8344 61.8126 16.91 61.8435C16.9856 61.8745 17.0546 61.9206 17.113 61.9794C17.1714 62.0381 17.2182 62.1082 17.2505 62.1858C17.2829 62.2633 17.3002 62.3467 17.3016 62.4312Z" fill="white" fill-opacity="0.4"/>
<path d="M1.47546 147C1.47412 147.084 1.45677 147.168 1.42441 147.245C1.39206 147.323 1.34532 147.393 1.28688 147.451C1.22845 147.51 1.15945 147.556 1.08385 147.587C1.00825 147.618 0.927516 147.633 0.846279 147.632C0.764976 147.634 0.684161 147.618 0.608466 147.588C0.532771 147.557 0.463683 147.51 0.405161 147.452C0.346639 147.393 0.299833 147.323 0.267427 147.245C0.23502 147.168 0.217649 147.084 0.216309 147C0.217649 146.915 0.23502 146.832 0.267427 146.754C0.299833 146.676 0.346639 146.606 0.405161 146.547C0.463683 146.489 0.532771 146.443 0.608466 146.412C0.684161 146.381 0.764976 146.366 0.846279 146.367C0.927516 146.366 1.00825 146.381 1.08385 146.412C1.15945 146.443 1.22845 146.489 1.28688 146.548C1.34532 146.606 1.39206 146.677 1.42441 146.754C1.45677 146.832 1.47412 146.915 1.47546 147Z" fill="white" fill-opacity="0.4"/>
<path d="M397 190.705C397 191.667 396.225 192.445 395.27 192.445C394.313 192.445 393.538 191.667 393.538 190.705C393.538 189.745 394.313 188.967 395.27 188.967C396.225 188.967 397 189.745 397 190.705Z" fill="white" fill-opacity="0.4"/>
<path fill-rule="evenodd" clip-rule="evenodd" d="M392.533 245.646L386.779 251.428L386.27 250.917L392.025 245.135L392.533 245.646Z" fill="white" fill-opacity="0.4"/>
<path d="M375.733 352.478C375.733 353.438 374.958 354.217 374.002 354.217C373.046 354.217 372.271 353.438 372.271 352.478C372.271 351.517 373.046 350.738 374.002 350.738C374.958 350.738 375.733 351.517 375.733 352.478Z" fill="white" fill-opacity="0.4"/>
<path d="M367.64 294.45C367.639 294.534 367.622 294.618 367.589 294.695C367.557 294.773 367.51 294.843 367.452 294.902C367.393 294.96 367.324 295.007 367.249 295.037C367.173 295.068 367.092 295.084 367.011 295.082C366.663 295.082 366.381 294.799 366.381 294.45C366.381 294.1 366.663 293.817 367.011 293.817C367.092 293.816 367.173 293.831 367.249 293.862C367.324 293.893 367.393 293.939 367.452 293.998C367.51 294.057 367.557 294.127 367.589 294.204C367.622 294.282 367.639 294.365 367.64 294.45Z" fill="white" fill-opacity="0.4"/>
<path d="M343.558 368.824C343.555 368.994 343.487 369.157 343.369 369.275C343.251 369.394 343.093 369.459 342.929 369.456C342.581 369.456 342.299 369.172 342.299 368.824C342.299 368.474 342.581 368.192 342.929 368.192C343.01 368.19 343.091 368.205 343.166 368.236C343.242 368.267 343.311 368.313 343.369 368.372C343.428 368.431 343.475 368.501 343.507 368.578C343.539 368.656 343.557 368.739 343.558 368.824Z" fill="white" fill-opacity="0.4"/>
<path d="M335.268 342.154C335.268 342.503 334.986 342.786 334.638 342.786C334.557 342.788 334.476 342.773 334.401 342.742C334.325 342.711 334.256 342.664 334.198 342.606C334.139 342.547 334.093 342.477 334.06 342.399C334.028 342.322 334.011 342.238 334.009 342.154C334.011 342.069 334.028 341.986 334.06 341.908C334.093 341.831 334.139 341.761 334.198 341.702C334.256 341.643 334.325 341.597 334.401 341.566C334.476 341.535 334.557 341.52 334.638 341.522C334.986 341.522 335.268 341.804 335.268 342.154Z" fill="white" fill-opacity="0.4"/>
<path d="M376.992 62.4321C376.991 62.5166 376.974 62.6001 376.941 62.6777C376.909 62.7552 376.862 62.8254 376.804 62.8842C376.745 62.943 376.676 62.9893 376.601 63.0203C376.525 63.0514 376.444 63.0666 376.363 63.0652C376.199 63.0681 376.04 63.003 375.922 62.8843C375.804 62.7656 375.736 62.6029 375.733 62.4321C375.733 62.0834 376.015 61.7998 376.363 61.7998C376.71 61.7998 376.992 62.0834 376.992 62.4321Z" fill="white" fill-opacity="0.4"/>
<path d="M361.166 147C361.166 147.349 360.884 147.632 360.536 147.632C360.455 147.633 360.374 147.618 360.299 147.587C360.223 147.556 360.154 147.51 360.096 147.451C360.037 147.393 359.99 147.323 359.958 147.245C359.926 147.167 359.908 147.084 359.907 147C359.908 146.915 359.926 146.832 359.958 146.754C359.99 146.677 360.037 146.606 360.096 146.548C360.154 146.489 360.223 146.443 360.299 146.412C360.374 146.381 360.455 146.366 360.536 146.367C360.884 146.367 361.166 146.65 361.166 147Z" fill="white" fill-opacity="0.4"/>
<path d="M300.738 376.126C300.738 376.475 300.456 376.758 300.108 376.758C300.027 376.759 299.946 376.744 299.871 376.713C299.795 376.682 299.726 376.636 299.668 376.577C299.609 376.519 299.562 376.449 299.53 376.371C299.498 376.293 299.48 376.21 299.479 376.126C299.48 376.041 299.498 375.958 299.53 375.88C299.562 375.803 299.609 375.732 299.668 375.674C299.726 375.615 299.795 375.569 299.871 375.538C299.946 375.507 300.027 375.492 300.108 375.493C300.456 375.493 300.738 375.776 300.738 376.126Z" fill="white" fill-opacity="0.4"/>
<path d="M366.201 389.678C366.2 389.763 366.183 389.846 366.15 389.924C366.118 390.001 366.071 390.072 366.013 390.13C365.954 390.189 365.885 390.235 365.81 390.267C365.734 390.298 365.653 390.313 365.572 390.311C365.491 390.313 365.41 390.298 365.334 390.267C365.259 390.235 365.19 390.189 365.131 390.13C365.073 390.072 365.026 390.001 364.994 389.924C364.962 389.846 364.944 389.763 364.943 389.678C364.944 389.594 364.962 389.51 364.994 389.433C365.026 389.355 365.073 389.285 365.131 389.226C365.19 389.168 365.259 389.122 365.334 389.091C365.41 389.06 365.491 389.044 365.572 389.046C365.653 389.044 365.734 389.06 365.81 389.091C365.885 389.122 365.954 389.168 366.013 389.226C366.071 389.285 366.118 389.355 366.15 389.433C366.183 389.51 366.2 389.594 366.201 389.678Z" fill="white" fill-opacity="0.4"/>
<path d="M261.262 391.417C261.262 392.377 260.487 393.157 259.531 393.157C258.575 393.157 257.8 392.377 257.8 391.417C257.8 390.457 258.575 389.678 259.531 389.678C260.487 389.678 261.262 390.457 261.262 391.417Z" fill="white" fill-opacity="0.4"/>
<path fill-rule="evenodd" clip-rule="evenodd" d="M149.867 361.398L153.614 368.658L152.976 368.99L149.229 361.731L149.867 361.398Z" fill="white" fill-opacity="0.4"/>
<path d="M136.719 411.544C136.719 411.892 136.437 412.176 136.089 412.176C135.925 412.178 135.767 412.113 135.649 411.995C135.531 411.876 135.463 411.714 135.46 411.544C135.462 411.459 135.479 411.376 135.511 411.298C135.544 411.221 135.59 411.15 135.649 411.092C135.707 411.033 135.776 410.987 135.852 410.956C135.927 410.925 136.008 410.91 136.089 410.911C136.437 410.911 136.719 411.194 136.719 411.544Z" fill="white" fill-opacity="0.4"/>
<path d="M33.848 384.077C33.8467 384.161 33.8293 384.245 33.7969 384.322C33.7645 384.4 33.7177 384.47 33.6592 384.529C33.6006 384.588 33.5316 384.634 33.4559 384.665C33.3802 384.696 33.2993 384.711 33.218 384.709C33.1368 384.711 33.0561 384.695 32.9805 384.664C32.9049 384.633 32.8359 384.587 32.7774 384.529C32.719 384.47 32.6723 384.4 32.6399 384.322C32.6076 384.245 32.5902 384.161 32.5889 384.077C32.5902 383.992 32.6076 383.909 32.6399 383.831C32.6723 383.754 32.719 383.684 32.7774 383.625C32.8359 383.566 32.9049 383.52 32.9805 383.489C33.0561 383.458 33.1368 383.443 33.218 383.444C33.2993 383.443 33.3802 383.458 33.4559 383.489C33.5316 383.52 33.6006 383.566 33.6592 383.625C33.7177 383.683 33.7645 383.753 33.7969 383.831C33.8293 383.909 33.8467 383.992 33.848 384.077Z" fill="white" fill-opacity="0.4"/>
<path d="M116.936 380.243C116.935 380.328 116.917 380.411 116.885 380.489C116.852 380.566 116.806 380.637 116.747 380.695C116.689 380.754 116.62 380.8 116.544 380.831C116.469 380.862 116.388 380.877 116.307 380.876C116.225 380.877 116.145 380.862 116.069 380.831C115.993 380.8 115.925 380.754 115.866 380.695C115.808 380.637 115.761 380.566 115.729 380.489C115.696 380.411 115.679 380.328 115.677 380.243C115.677 379.894 115.959 379.61 116.307 379.61C116.655 379.61 116.936 379.894 116.936 380.243Z" fill="white" fill-opacity="0.4"/>
<path d="M146.55 327.879C146.549 327.964 146.531 328.047 146.499 328.125C146.467 328.202 146.42 328.272 146.361 328.331C146.303 328.39 146.234 328.436 146.158 328.467C146.083 328.498 146.002 328.513 145.921 328.512C145.573 328.512 145.291 328.229 145.291 327.879C145.291 327.531 145.573 327.247 145.921 327.247C146.268 327.247 146.55 327.531 146.55 327.879Z" fill="white" fill-opacity="0.4"/>
<path d="M393.538 384.077C393.537 384.161 393.519 384.245 393.487 384.322C393.455 384.4 393.408 384.47 393.349 384.529C393.291 384.587 393.222 384.633 393.146 384.664C393.071 384.695 392.99 384.711 392.909 384.709C392.561 384.709 392.279 384.426 392.279 384.077C392.279 383.727 392.561 383.444 392.909 383.444C392.99 383.443 393.071 383.458 393.146 383.489C393.222 383.52 393.291 383.566 393.349 383.625C393.408 383.684 393.455 383.754 393.487 383.831C393.519 383.909 393.537 383.992 393.538 384.077Z" fill="white" fill-opacity="0.4"/>
<path d="M84.924 397.388C84.924 398.348 84.149 399.127 83.1926 399.127C82.2369 399.127 81.4619 398.348 81.4619 397.388C81.4619 396.427 82.2369 395.648 83.1926 395.648C84.149 395.648 84.924 396.427 84.924 397.388Z" fill="white" fill-opacity="0.4"/>
<path d="M300.738 14.7288C300.735 14.8995 300.667 15.0619 300.549 15.1805C300.431 15.299 300.272 15.364 300.108 15.3611C299.944 15.3639 299.786 15.299 299.668 15.1804C299.55 15.0619 299.482 14.8994 299.479 14.7288C299.479 14.3793 299.761 14.0957 300.108 14.0957C300.456 14.0957 300.738 14.3793 300.738 14.7288Z" fill="white" fill-opacity="0.4"/>
<path d="M366.201 28.2808C366.2 28.3653 366.183 28.4487 366.15 28.5263C366.118 28.6038 366.071 28.6739 366.013 28.7327C365.954 28.7914 365.885 28.8376 365.81 28.8685C365.734 28.8995 365.653 28.9146 365.572 28.9131C365.491 28.9146 365.41 28.8995 365.334 28.8685C365.259 28.8376 365.19 28.7914 365.131 28.7327C365.073 28.6739 365.026 28.6038 364.994 28.5263C364.962 28.4487 364.944 28.3653 364.943 28.2808C364.944 28.1963 364.962 28.1129 364.994 28.0354C365.026 27.9578 365.073 27.8877 365.131 27.829C365.19 27.7702 365.259 27.7241 365.334 27.6931C365.41 27.6622 365.491 27.647 365.572 27.6485C365.653 27.647 365.734 27.6622 365.81 27.6931C365.885 27.7241 365.954 27.7702 366.013 27.829C366.071 27.8877 366.118 27.9578 366.15 28.0354C366.183 28.1129 366.2 28.1963 366.201 28.2808Z" fill="white" fill-opacity="0.4"/>
<path d="M261.262 30.0206C261.262 30.981 260.487 31.76 259.531 31.76C258.575 31.76 257.8 30.981 257.8 30.0206C257.8 29.0594 258.575 28.2812 259.531 28.2812C260.487 28.2812 261.262 29.0594 261.262 30.0206Z" fill="white" fill-opacity="0.4"/>
<path fill-rule="evenodd" clip-rule="evenodd" d="M149.867 0L153.614 7.25924L152.976 7.59228L149.229 0.333038L149.867 0Z" fill="white" fill-opacity="0.4"/>
<path d="M136.719 50.145C136.716 50.3157 136.648 50.4781 136.53 50.5966C136.412 50.7152 136.253 50.7801 136.089 50.7772C135.925 50.7801 135.767 50.7151 135.649 50.5966C135.531 50.478 135.463 50.3156 135.46 50.145C135.46 49.7963 135.742 49.5127 136.089 49.5127C136.437 49.5127 136.719 49.7954 136.719 50.145Z" fill="white" fill-opacity="0.4"/>
<path d="M175.206 75.6392C175.203 75.8099 175.135 75.9723 175.017 76.0909C174.899 76.2094 174.74 76.2744 174.576 76.2715C174.412 76.2744 174.254 76.2094 174.136 76.0908C174.018 75.9723 173.95 75.8098 173.947 75.6392C173.948 75.5547 173.966 75.4713 173.998 75.3938C174.03 75.3162 174.077 75.2461 174.136 75.1874C174.194 75.1286 174.263 75.0825 174.339 75.0515C174.414 75.0206 174.495 75.0054 174.576 75.0069C174.924 75.0069 175.206 75.2897 175.206 75.6392Z" fill="white" fill-opacity="0.4"/>
<path d="M218.369 101.169C218.369 101.519 218.087 101.802 217.739 101.802C217.658 101.803 217.577 101.788 217.501 101.757C217.426 101.726 217.357 101.68 217.298 101.621C217.24 101.563 217.193 101.492 217.161 101.415C217.129 101.337 217.111 101.254 217.11 101.169C217.111 101.085 217.129 101.002 217.161 100.924C217.193 100.847 217.24 100.776 217.298 100.718C217.357 100.659 217.426 100.613 217.501 100.582C217.577 100.551 217.658 100.536 217.739 100.537C218.087 100.537 218.369 100.82 218.369 101.169Z" fill="white" fill-opacity="0.4"/>
<path d="M147.809 155.311C147.809 155.661 147.527 155.943 147.179 155.943C147.098 155.945 147.017 155.93 146.942 155.899C146.866 155.868 146.797 155.822 146.739 155.763C146.68 155.704 146.633 155.634 146.601 155.556C146.569 155.479 146.551 155.395 146.55 155.311C146.55 154.962 146.832 154.679 147.179 154.679C147.527 154.679 147.809 154.962 147.809 155.311Z" fill="white" fill-opacity="0.4"/>
<path d="M33.848 22.68C33.8466 22.7645 33.8291 22.848 33.7967 22.9255C33.7642 23.003 33.7174 23.0732 33.6589 23.1319C33.6004 23.1906 33.5314 23.2367 33.4557 23.2677C33.3801 23.2986 33.2993 23.3138 33.218 23.3123C33.054 23.3151 32.8956 23.2501 32.7777 23.1316C32.6597 23.013 32.5918 22.8506 32.5889 22.68C32.5889 22.3305 32.871 22.0469 33.218 22.0469C33.5659 22.0469 33.848 22.3305 33.848 22.68Z" fill="white" fill-opacity="0.4"/>
<path d="M393.538 22.68C393.535 22.8506 393.467 23.013 393.349 23.1316C393.231 23.2501 393.073 23.3151 392.909 23.3123C392.745 23.3151 392.586 23.2502 392.468 23.1316C392.35 23.0131 392.282 22.8507 392.279 22.68C392.279 22.3305 392.561 22.0469 392.909 22.0469C393.256 22.0469 393.538 22.3305 393.538 22.68Z" fill="white" fill-opacity="0.4"/>
<path d="M84.924 35.9913C84.924 36.9517 84.149 37.7307 83.1926 37.7307C82.2369 37.7307 81.4619 36.9517 81.4619 35.9913C81.4619 35.0301 82.2369 34.252 83.1926 34.252C84.149 34.252 84.924 35.0301 84.924 35.9913Z" fill="white" fill-opacity="0.4"/>
</svg>
