<svg width="214" height="33" viewBox="0 0 214 33" fill="none" xmlns="http://www.w3.org/2000/svg">
<path d="M4.864 32.396C3.57333 32.396 2.576 32.044 1.872 31.34C1.168 30.6067 0.816 29.5947 0.816 28.304V4.676C0.816 3.32666 1.168 2.31466 1.872 1.64C2.576 0.935998 3.57333 0.583998 4.864 0.583998C6.184 0.583998 7.18133 0.935998 7.856 1.64C8.56 2.31466 8.912 3.32666 8.912 4.676V14.268H9L19.692 2.476C20.2493 1.88933 20.836 1.43467 21.452 1.112C22.0973 0.759998 22.816 0.583998 23.608 0.583998C24.84 0.583998 25.72 0.906665 26.248 1.552C26.8053 2.168 27.0547 2.90133 26.996 3.752C26.9667 4.57333 26.6293 5.336 25.984 6.04L15.336 17.348V14.048L26.512 26.676C27.2747 27.5267 27.656 28.4067 27.656 29.316C27.656 30.196 27.348 30.9293 26.732 31.516C26.1453 32.1027 25.2653 32.396 24.092 32.396C23.0947 32.396 22.288 32.2053 21.672 31.824C21.0853 31.4133 20.44 30.812 19.736 30.02L9 18.008H8.912V28.304C8.912 29.5947 8.57467 30.6067 7.9 31.34C7.22533 32.044 6.21333 32.396 4.864 32.396ZM39.1362 32.484C37.4642 32.484 35.9829 32.176 34.6922 31.56C33.4309 30.944 32.4336 30.108 31.7002 29.052C30.9962 27.9667 30.6442 26.7347 30.6442 25.356C30.6442 23.772 31.0549 22.5253 31.8762 21.616C32.6976 20.7067 34.0176 20.0613 35.8362 19.68C37.6549 19.2693 40.0749 19.064 43.0962 19.064H45.5162V22.76H43.0962C41.9522 22.76 40.9989 22.848 40.2362 23.024C39.5029 23.1707 38.9602 23.42 38.6082 23.772C38.2562 24.0947 38.0802 24.52 38.0802 25.048C38.0802 25.7227 38.3149 26.28 38.7842 26.72C39.2829 27.16 39.9869 27.38 40.8962 27.38C41.6296 27.38 42.2749 27.2187 42.8322 26.896C43.4189 26.5733 43.8882 26.1333 44.2402 25.576C44.5922 24.9893 44.7682 24.3147 44.7682 23.552V18.448C44.7682 17.392 44.4896 16.644 43.9322 16.204C43.4042 15.764 42.4802 15.544 41.1602 15.544C40.4562 15.544 39.6642 15.632 38.7842 15.808C37.9042 15.9547 36.9216 16.2333 35.8362 16.644C35.0442 16.9373 34.3696 16.9813 33.8122 16.776C33.2549 16.5707 32.8149 16.2187 32.4922 15.72C32.1989 15.2213 32.0522 14.6787 32.0522 14.092C32.0816 13.5053 32.2722 12.948 32.6242 12.42C33.0056 11.892 33.5776 11.4813 34.3402 11.188C35.7482 10.66 37.0389 10.308 38.2122 10.132C39.4149 9.956 40.5149 9.868 41.5122 9.868C43.9176 9.868 45.8976 10.22 47.4522 10.924C49.0362 11.5987 50.2096 12.6547 50.9722 14.092C51.7642 15.5 52.1602 17.3187 52.1602 19.548V28.436C52.1602 29.7267 51.8522 30.7093 51.2362 31.384C50.6202 32.0587 49.7256 32.396 48.5522 32.396C47.3496 32.396 46.4256 32.0587 45.7802 31.384C45.1642 30.7093 44.8562 29.7267 44.8562 28.436V27.292L45.1202 27.908C44.9736 28.8467 44.6362 29.6533 44.1082 30.328C43.5802 31.0027 42.8909 31.5307 42.0402 31.912C41.1896 32.2933 40.2216 32.484 39.1362 32.484ZM60.58 32.396C59.348 32.396 58.3947 32.0587 57.72 31.384C57.0454 30.7093 56.708 29.7267 56.708 28.436V13.872C56.708 12.6107 57.0307 11.6427 57.676 10.968C58.3507 10.2933 59.304 9.956 60.536 9.956C61.768 9.956 62.7067 10.2933 63.352 10.968C63.9974 11.6427 64.32 12.6107 64.32 13.872V16.292L63.836 14.136C64.452 12.8453 65.3614 11.8187 66.564 11.056C67.796 10.264 69.248 9.868 70.92 9.868C72.504 9.868 73.8534 10.2493 74.968 11.012C76.112 11.7747 76.9334 12.9333 77.432 14.488H76.816C77.4907 13.0507 78.5027 11.9213 79.852 11.1C81.2014 10.2787 82.6974 9.868 84.34 9.868C86.0414 9.868 87.4347 10.2053 88.52 10.88C89.6054 11.5253 90.412 12.552 90.94 13.96C91.4974 15.3387 91.776 17.084 91.776 19.196V28.436C91.776 29.7267 91.424 30.7093 90.72 31.384C90.0454 32.0587 89.0774 32.396 87.816 32.396C86.584 32.396 85.6307 32.0587 84.956 31.384C84.2814 30.7093 83.944 29.7267 83.944 28.436V19.416C83.944 18.1547 83.7534 17.2453 83.372 16.688C82.9907 16.1307 82.36 15.852 81.48 15.852C80.3947 15.852 79.5587 16.2333 78.972 16.996C78.4147 17.7587 78.136 18.844 78.136 20.252V28.436C78.136 29.7267 77.7987 30.7093 77.124 31.384C76.4494 32.0587 75.4814 32.396 74.22 32.396C72.9587 32.396 71.9907 32.0587 71.316 31.384C70.6414 30.7093 70.304 29.7267 70.304 28.436V19.416C70.304 18.1547 70.1134 17.2453 69.732 16.688C69.3507 16.1307 68.72 15.852 67.84 15.852C66.784 15.852 65.9627 16.2333 65.376 16.996C64.8187 17.7587 64.54 18.844 64.54 20.252V28.436C64.54 31.076 63.22 32.396 60.58 32.396ZM107.279 32.484C104.874 32.484 102.776 32.0293 100.987 31.12C99.1978 30.2107 97.8045 28.9053 96.8072 27.204C95.8098 25.5027 95.3112 23.4933 95.3112 21.176C95.3112 19.416 95.5898 17.8467 96.1472 16.468C96.7045 15.06 97.5112 13.872 98.5672 12.904C99.6232 11.9067 100.884 11.1587 102.351 10.66C103.818 10.132 105.46 9.868 107.279 9.868C109.684 9.868 111.782 10.3227 113.571 11.232C115.36 12.1413 116.739 13.4467 117.707 15.148C118.704 16.82 119.203 18.8293 119.203 21.176C119.203 22.9067 118.924 24.476 118.367 25.884C117.81 27.292 117.003 28.4947 115.947 29.492C114.92 30.46 113.659 31.208 112.163 31.736C110.696 32.2347 109.068 32.484 107.279 32.484ZM107.279 26.72C108.071 26.72 108.775 26.5293 109.391 26.148C110.007 25.7373 110.476 25.136 110.799 24.344C111.151 23.5227 111.327 22.4667 111.327 21.176C111.327 19.2107 110.946 17.8027 110.183 16.952C109.42 16.072 108.452 15.632 107.279 15.632C106.487 15.632 105.783 15.8227 105.167 16.204C104.551 16.5853 104.067 17.1867 103.715 18.008C103.363 18.8 103.187 19.856 103.187 21.176C103.187 23.112 103.568 24.52 104.331 25.4C105.094 26.28 106.076 26.72 107.279 26.72ZM130.888 32.484C129.011 32.484 127.471 32.1467 126.268 31.472C125.065 30.768 124.156 29.7267 123.54 28.348C122.953 26.9693 122.66 25.224 122.66 23.112V13.872C122.66 12.5813 122.997 11.6133 123.672 10.968C124.347 10.2933 125.315 9.956 126.576 9.956C127.837 9.956 128.805 10.2933 129.48 10.968C130.155 11.6133 130.492 12.5813 130.492 13.872V23.332C130.492 24.388 130.712 25.18 131.152 25.708C131.592 26.236 132.281 26.5 133.22 26.5C134.276 26.5 135.141 26.1187 135.816 25.356C136.491 24.5933 136.828 23.5813 136.828 22.32V13.872C136.828 12.5813 137.165 11.6133 137.84 10.968C138.515 10.2933 139.483 9.956 140.744 9.956C142.005 9.956 142.973 10.2933 143.648 10.968C144.323 11.6133 144.66 12.5813 144.66 13.872V28.436C144.66 31.076 143.399 32.396 140.876 32.396C139.644 32.396 138.691 32.0587 138.016 31.384C137.341 30.7093 137.004 29.7267 137.004 28.436V25.884L137.708 28.04C137.063 29.4773 136.153 30.5773 134.98 31.34C133.836 32.1027 132.472 32.484 130.888 32.484ZM157.842 32.484C156.551 32.484 155.231 32.3813 153.882 32.176C152.562 32 151.359 31.6627 150.274 31.164C149.54 30.8707 149.012 30.4747 148.69 29.976C148.396 29.4773 148.25 28.9493 148.25 28.392C148.279 27.8347 148.44 27.336 148.734 26.896C149.056 26.4267 149.467 26.104 149.966 25.928C150.494 25.7227 151.08 25.7373 151.726 25.972C152.958 26.412 154.058 26.7347 155.026 26.94C156.023 27.116 156.976 27.204 157.886 27.204C158.971 27.204 159.748 27.0573 160.218 26.764C160.687 26.4413 160.922 26.0307 160.922 25.532C160.922 25.092 160.76 24.7547 160.438 24.52C160.144 24.2853 159.719 24.124 159.162 24.036L154.278 23.244C152.459 22.9213 151.051 22.2613 150.054 21.264C149.056 20.2373 148.558 18.9027 148.558 17.26C148.558 15.7347 148.983 14.4293 149.834 13.344C150.714 12.2293 151.902 11.3787 153.398 10.792C154.923 10.176 156.668 9.868 158.634 9.868C159.954 9.868 161.156 9.97067 162.242 10.176C163.327 10.352 164.383 10.6893 165.41 11.188C166.055 11.452 166.51 11.8333 166.774 12.332C167.038 12.8307 167.14 13.3587 167.082 13.916C167.023 14.444 166.832 14.9427 166.51 15.412C166.216 15.852 165.806 16.16 165.278 16.336C164.75 16.4827 164.134 16.4387 163.43 16.204C162.462 15.8227 161.596 15.544 160.834 15.368C160.1 15.192 159.411 15.104 158.766 15.104C157.563 15.104 156.712 15.2653 156.214 15.588C155.715 15.9107 155.466 16.3213 155.466 16.82C155.466 17.2013 155.598 17.524 155.862 17.788C156.126 18.0227 156.536 18.184 157.094 18.272L161.978 19.108C163.855 19.4013 165.292 20.0467 166.29 21.044C167.316 22.012 167.83 23.332 167.83 25.004C167.83 27.38 166.92 29.228 165.102 30.548C163.283 31.8387 160.863 32.484 157.842 32.484ZM173.026 32.396C172.116 32.396 171.354 32.1907 170.738 31.78C170.122 31.34 169.74 30.7533 169.594 30.02C169.447 29.2573 169.579 28.4067 169.99 27.468L180.946 3.884C181.474 2.74 182.119 1.904 182.882 1.376C183.674 0.847998 184.568 0.583998 185.566 0.583998C186.563 0.583998 187.428 0.847998 188.162 1.376C188.924 1.904 189.584 2.74 190.142 3.884L201.098 27.468C201.567 28.4067 201.728 29.2573 201.582 30.02C201.464 30.7827 201.098 31.3693 200.482 31.78C199.895 32.1907 199.162 32.396 198.282 32.396C197.108 32.396 196.199 32.132 195.554 31.604C194.938 31.076 194.38 30.2253 193.882 29.052L191.506 23.464L194.586 25.708H176.458L179.582 23.464L177.206 29.052C176.678 30.2253 176.135 31.076 175.578 31.604C175.02 32.132 174.17 32.396 173.026 32.396ZM185.478 9.428L180.374 21.616L179.142 19.504H191.946L190.714 21.616L185.566 9.428H185.478ZM209.18 32.396C207.89 32.396 206.892 32.044 206.188 31.34C205.484 30.6067 205.132 29.58 205.132 28.26V4.72C205.132 3.37067 205.484 2.344 206.188 1.64C206.892 0.935998 207.89 0.583998 209.18 0.583998C210.5 0.583998 211.498 0.935998 212.172 1.64C212.876 2.344 213.228 3.37067 213.228 4.72V28.26C213.228 29.58 212.891 30.6067 212.216 31.34C211.542 32.044 210.53 32.396 209.18 32.396Z" fill="white"/>
</svg>
