<svg width="160" height="45" viewBox="0 0 160 45" fill="none" xmlns="http://www.w3.org/2000/svg">
<path d="M5.65869 33.4213C4.72002 33.4213 3.99469 33.1653 3.48269 32.6533C2.97069 32.12 2.71469 31.384 2.71469 30.4453V13.2613C2.71469 12.28 2.97069 11.544 3.48269 11.0533C3.99469 10.5413 4.72002 10.2853 5.65869 10.2853C6.61869 10.2853 7.34402 10.5413 7.83469 11.0533C8.34669 11.544 8.60269 12.28 8.60269 13.2613V20.2373H8.66669L16.4427 11.6613C16.848 11.2346 17.2747 10.904 17.7227 10.6693C18.192 10.4133 18.7147 10.2853 19.2907 10.2853C20.1867 10.2853 20.8267 10.52 21.2107 10.9893C21.616 11.4373 21.7974 11.9706 21.7547 12.5893C21.7334 13.1866 21.488 13.7413 21.0187 14.2533L13.2747 22.4773V20.0773L21.4027 29.2613C21.9574 29.88 22.2347 30.52 22.2347 31.1813C22.2347 31.8213 22.0107 32.3546 21.5627 32.7813C21.136 33.208 20.496 33.4213 19.6427 33.4213C18.9174 33.4213 18.3307 33.2826 17.8827 33.0053C17.456 32.7066 16.9867 32.2693 16.4747 31.6933L8.66669 22.9573H8.60269V30.4453C8.60269 31.384 8.35735 32.12 7.86669 32.6533C7.37602 33.1653 6.64002 33.4213 5.65869 33.4213ZM30.5839 33.4853C29.3679 33.4853 28.2906 33.2613 27.3519 32.8133C26.4346 32.3653 25.7093 31.7573 25.1759 30.9893C24.6639 30.2 24.4079 29.304 24.4079 28.3013C24.4079 27.1493 24.7066 26.2426 25.3039 25.5813C25.9013 24.92 26.8613 24.4506 28.1839 24.1733C29.5066 23.8746 31.2666 23.7253 33.4639 23.7253H35.2239V26.4133H33.4639C32.6319 26.4133 31.9386 26.4773 31.3839 26.6053C30.8506 26.712 30.4559 26.8933 30.1999 27.1493C29.9439 27.384 29.8159 27.6933 29.8159 28.0773C29.8159 28.568 29.9866 28.9733 30.3279 29.2933C30.6906 29.6133 31.2026 29.7733 31.8639 29.7733C32.3973 29.7733 32.8666 29.656 33.2719 29.4213C33.6986 29.1866 34.0399 28.8666 34.2959 28.4613C34.5519 28.0346 34.6799 27.544 34.6799 26.9893V23.2773C34.6799 22.5093 34.4773 21.9653 34.0719 21.6453C33.6879 21.3253 33.0159 21.1653 32.0559 21.1653C31.5439 21.1653 30.9679 21.2293 30.3279 21.3573C29.6879 21.464 28.9733 21.6666 28.1839 21.9653C27.6079 22.1786 27.1173 22.2106 26.7119 22.0613C26.3066 21.912 25.9866 21.656 25.7519 21.2933C25.5386 20.9306 25.4319 20.536 25.4319 20.1093C25.4533 19.6826 25.5919 19.2773 25.8479 18.8933C26.1253 18.5093 26.5413 18.2106 27.0959 17.9973C28.1199 17.6133 29.0586 17.3573 29.9119 17.2293C30.7866 17.1013 31.5866 17.0373 32.3119 17.0373C34.0613 17.0373 35.5013 17.2933 36.6319 17.8053C37.7839 18.296 38.6373 19.064 39.1919 20.1093C39.7679 21.1333 40.0559 22.456 40.0559 24.0773V30.5413C40.0559 31.48 39.8319 32.1946 39.3839 32.6853C38.9359 33.176 38.2853 33.4213 37.4319 33.4213C36.5573 33.4213 35.8853 33.176 35.4159 32.6853C34.9679 32.1946 34.7439 31.48 34.7439 30.5413V29.7093L34.9359 30.1573C34.8293 30.84 34.5839 31.4266 34.1999 31.9173C33.8159 32.408 33.3146 32.792 32.6959 33.0693C32.0773 33.3466 31.3733 33.4853 30.5839 33.4853ZM46.1794 33.4213C45.2834 33.4213 44.5901 33.176 44.0994 32.6853C43.6088 32.1946 43.3634 31.48 43.3634 30.5413V19.9493C43.3634 19.032 43.5981 18.328 44.0674 17.8373C44.5581 17.3466 45.2514 17.1013 46.1474 17.1013C47.0434 17.1013 47.7261 17.3466 48.1954 17.8373C48.6648 18.328 48.8994 19.032 48.8994 19.9493V21.7093L48.5474 20.1413C48.9954 19.2026 49.6568 18.456 50.5314 17.9013C51.4274 17.3253 52.4834 17.0373 53.6994 17.0373C54.8514 17.0373 55.8328 17.3146 56.6434 17.8693C57.4754 18.424 58.0728 19.2666 58.4354 20.3973H57.9874C58.4781 19.352 59.2141 18.5306 60.1954 17.9333C61.1768 17.336 62.2648 17.0373 63.4594 17.0373C64.6968 17.0373 65.7101 17.2826 66.4994 17.7733C67.2888 18.2426 67.8754 18.9893 68.2594 20.0133C68.6648 21.016 68.8674 22.2853 68.8674 23.8213V30.5413C68.8674 31.48 68.6114 32.1946 68.0994 32.6853C67.6088 33.176 66.9048 33.4213 65.9874 33.4213C65.0914 33.4213 64.3981 33.176 63.9074 32.6853C63.4168 32.1946 63.1714 31.48 63.1714 30.5413V23.9813C63.1714 23.064 63.0328 22.4026 62.7554 21.9973C62.4781 21.592 62.0194 21.3893 61.3794 21.3893C60.5901 21.3893 59.9821 21.6666 59.5554 22.2213C59.1501 22.776 58.9474 23.5653 58.9474 24.5893V30.5413C58.9474 31.48 58.7021 32.1946 58.2114 32.6853C57.7208 33.176 57.0168 33.4213 56.0994 33.4213C55.1821 33.4213 54.4781 33.176 53.9874 32.6853C53.4968 32.1946 53.2514 31.48 53.2514 30.5413V23.9813C53.2514 23.064 53.1128 22.4026 52.8354 21.9973C52.5581 21.592 52.0994 21.3893 51.4594 21.3893C50.6914 21.3893 50.0941 21.6666 49.6674 22.2213C49.2621 22.776 49.0594 23.5653 49.0594 24.5893V30.5413C49.0594 32.4613 48.0994 33.4213 46.1794 33.4213ZM80.1424 33.4853C78.3931 33.4853 76.8678 33.1546 75.5664 32.4933C74.2651 31.832 73.2518 30.8826 72.5264 29.6453C71.8011 28.408 71.4384 26.9466 71.4384 25.2613C71.4384 23.9813 71.6411 22.84 72.0464 21.8373C72.4518 20.8133 73.0384 19.9493 73.8064 19.2453C74.5744 18.52 75.4918 17.976 76.5584 17.6133C77.6251 17.2293 78.8198 17.0373 80.1424 17.0373C81.8918 17.0373 83.4171 17.368 84.7184 18.0293C86.0198 18.6906 87.0224 19.64 87.7264 20.8773C88.4518 22.0933 88.8144 23.5546 88.8144 25.2613C88.8144 26.52 88.6118 27.6613 88.2064 28.6853C87.8011 29.7093 87.2144 30.584 86.4464 31.3093C85.6998 32.0133 84.7824 32.5573 83.6944 32.9413C82.6278 33.304 81.4438 33.4853 80.1424 33.4853ZM80.1424 29.2933C80.7184 29.2933 81.2304 29.1546 81.6784 28.8773C82.1264 28.5786 82.4678 28.1413 82.7024 27.5653C82.9584 26.968 83.0864 26.2 83.0864 25.2613C83.0864 23.832 82.8091 22.808 82.2544 22.1893C81.6998 21.5493 80.9958 21.2293 80.1424 21.2293C79.5664 21.2293 79.0544 21.368 78.6064 21.6453C78.1584 21.9226 77.8064 22.36 77.5504 22.9573C77.2944 23.5333 77.1664 24.3013 77.1664 25.2613C77.1664 26.6693 77.4438 27.6933 77.9984 28.3333C78.5531 28.9733 79.2678 29.2933 80.1424 29.2933ZM97.3124 33.4853C95.9471 33.4853 94.8271 33.24 93.9524 32.7493C93.0778 32.2373 92.4164 31.48 91.9684 30.4773C91.5418 29.4746 91.3284 28.2053 91.3284 26.6693V19.9493C91.3284 19.0106 91.5738 18.3066 92.0644 17.8373C92.5551 17.3466 93.2591 17.1013 94.1764 17.1013C95.0938 17.1013 95.7978 17.3466 96.2884 17.8373C96.7791 18.3066 97.0244 19.0106 97.0244 19.9493V26.8293C97.0244 27.5973 97.1844 28.1733 97.5044 28.5573C97.8244 28.9413 98.3258 29.1333 99.0084 29.1333C99.7764 29.1333 100.406 28.856 100.896 28.3013C101.387 27.7466 101.632 27.0106 101.632 26.0933V19.9493C101.632 19.0106 101.878 18.3066 102.368 17.8373C102.859 17.3466 103.563 17.1013 104.48 17.1013C105.398 17.1013 106.102 17.3466 106.592 17.8373C107.083 18.3066 107.328 19.0106 107.328 19.9493V30.5413C107.328 32.4613 106.411 33.4213 104.576 33.4213C103.68 33.4213 102.987 33.176 102.496 32.6853C102.006 32.1946 101.76 31.48 101.76 30.5413V28.6853L102.272 30.2533C101.803 31.2986 101.142 32.0986 100.288 32.6533C99.4564 33.208 98.4644 33.4853 97.3124 33.4853ZM116.915 33.4853C115.977 33.4853 115.017 33.4106 114.035 33.2613C113.075 33.1333 112.201 32.888 111.411 32.5253C110.878 32.312 110.494 32.024 110.259 31.6613C110.046 31.2986 109.939 30.9146 109.939 30.5093C109.961 30.104 110.078 29.7413 110.291 29.4213C110.526 29.08 110.825 28.8453 111.187 28.7173C111.571 28.568 111.998 28.5786 112.467 28.7493C113.363 29.0693 114.163 29.304 114.867 29.4533C115.593 29.5813 116.286 29.6453 116.947 29.6453C117.737 29.6453 118.302 29.5386 118.643 29.3253C118.985 29.0906 119.155 28.792 119.155 28.4293C119.155 28.1093 119.038 27.864 118.803 27.6933C118.59 27.5226 118.281 27.4053 117.875 27.3413L114.323 26.7653C113.001 26.5306 111.977 26.0506 111.251 25.3253C110.526 24.5786 110.163 23.608 110.163 22.4133C110.163 21.304 110.473 20.3546 111.091 19.5653C111.731 18.7546 112.595 18.136 113.683 17.7093C114.793 17.2613 116.062 17.0373 117.491 17.0373C118.451 17.0373 119.326 17.112 120.115 17.2613C120.905 17.3893 121.673 17.6346 122.419 17.9973C122.889 18.1893 123.219 18.4666 123.411 18.8293C123.603 19.192 123.678 19.576 123.635 19.9813C123.593 20.3653 123.454 20.728 123.219 21.0693C123.006 21.3893 122.707 21.6133 122.323 21.7413C121.939 21.848 121.491 21.816 120.979 21.6453C120.275 21.368 119.646 21.1653 119.091 21.0373C118.558 20.9093 118.057 20.8453 117.587 20.8453C116.713 20.8453 116.094 20.9626 115.731 21.1973C115.369 21.432 115.187 21.7306 115.187 22.0933C115.187 22.3706 115.283 22.6053 115.475 22.7973C115.667 22.968 115.966 23.0853 116.371 23.1493L119.923 23.7573C121.289 23.9706 122.334 24.44 123.059 25.1653C123.806 25.8693 124.179 26.8293 124.179 28.0453C124.179 29.7733 123.518 31.1173 122.195 32.0773C120.873 33.016 119.113 33.4853 116.915 33.4853ZM127.958 33.4213C127.297 33.4213 126.742 33.272 126.294 32.9733C125.846 32.6533 125.569 32.2266 125.462 31.6933C125.356 31.1386 125.452 30.52 125.75 29.8373L133.718 12.6853C134.102 11.8533 134.572 11.2453 135.126 10.8613C135.702 10.4773 136.353 10.2853 137.078 10.2853C137.804 10.2853 138.433 10.4773 138.966 10.8613C139.521 11.2453 140.001 11.8533 140.406 12.6853L148.374 29.8373C148.716 30.52 148.833 31.1386 148.726 31.6933C148.641 32.248 148.374 32.6746 147.926 32.9733C147.5 33.272 146.966 33.4213 146.326 33.4213C145.473 33.4213 144.812 33.2293 144.342 32.8453C143.894 32.4613 143.489 31.8426 143.126 30.9893L141.398 26.9253L143.638 28.5573H130.454L132.726 26.9253L130.998 30.9893C130.614 31.8426 130.22 32.4613 129.814 32.8453C129.409 33.2293 128.79 33.4213 127.958 33.4213ZM137.014 16.7173L133.302 25.5813L132.406 24.0453H141.718L140.822 25.5813L137.078 16.7173H137.014ZM154.252 33.4213C153.314 33.4213 152.588 33.1653 152.076 32.6533C151.564 32.12 151.308 31.3733 151.308 30.4133V13.2933C151.308 12.312 151.564 11.5653 152.076 11.0533C152.588 10.5413 153.314 10.2853 154.252 10.2853C155.212 10.2853 155.938 10.5413 156.428 11.0533C156.94 11.5653 157.196 12.312 157.196 13.2933V30.4133C157.196 31.3733 156.951 32.12 156.46 32.6533C155.97 33.1653 155.234 33.4213 154.252 33.4213Z" fill="url(#paint0_linear_6_64)"/>
<defs>
<linearGradient id="paint0_linear_6_64" x1="80.1667" y1="0.133301" x2="80.1667" y2="44.1333" gradientUnits="userSpaceOnUse">
<stop offset="0.181818" stop-color="white"/>
<stop offset="1" stop-color="white" stop-opacity="0.45"/>
</linearGradient>
</defs>
</svg>
