<svg width="208" height="208" viewBox="0 0 208 208" fill="none" xmlns="http://www.w3.org/2000/svg" opacity="0.05">
<g clip-path="url(#clip0_63_1484)">
<path d="M180.673 0H179.619C177.86 2.27802 176.125 4.576 174.406 6.88563C171.366 10.9708 168.377 15.0921 165.391 19.2109C159.112 27.8712 152.84 36.5206 146.111 44.8024C136.325 56.8468 125.167 67.2718 113.904 77.7941C110.809 80.6861 107.705 83.5852 104.62 86.5276C92.6561 97.9393 81.9329 110.756 71.2729 123.496C65.9685 129.836 60.6798 136.156 55.2619 142.276C41.6175 157.687 30.6359 174.698 20.1348 192.243C19.9593 192.536 19.7201 192.962 19.4251 193.488C18.3398 195.422 16.5036 198.694 14.3566 201.551C12.9917 203.367 11.5269 204.978 10.083 205.958C8.63866 206.938 7.3087 207.23 6.12019 206.618C2.31254 204.658 0.716352 202.394 0.430976 200.039C0.141856 197.651 1.18352 195.049 2.93779 192.393C4.68624 189.744 7.09862 187.108 9.44819 184.663C9.95492 184.137 10.4633 183.613 10.9732 183.09C12.7504 181.263 14.394 179.572 15.5247 178.133C16.2843 177.166 17.0423 176.199 17.7994 175.233L17.811 175.218C23.2552 168.27 28.6753 161.354 34.5372 154.732C47.7135 139.85 60.0438 124.154 72.3278 108.517C76.2012 103.586 80.07 98.6606 83.9592 93.7689C104.639 67.7589 128.602 44.3223 152.434 21.0126C156.553 16.9844 160.674 12.9538 164.768 8.92029C167.728 6.0033 170.617 3.02349 173.458 0H172.316C169.651 2.82464 166.944 5.60976 164.174 8.33914C160.083 12.3702 155.969 16.3937 151.85 20.4227C128.018 43.7308 104.013 67.2085 83.2978 93.2626C79.4019 98.1631 75.5285 103.094 71.6527 108.028C59.3719 123.661 47.0629 139.33 33.9044 154.192C28.0247 160.834 22.5884 167.771 17.1454 174.717L17.1392 174.725C16.3803 175.693 15.6204 176.662 14.8604 177.63C13.76 179.031 12.1601 180.677 10.3896 182.497C9.88499 183.016 9.36333 183.553 8.83875 184.098C6.48669 186.545 4.02771 189.228 2.2335 191.945C1.25798 193.422 0.46592 194.928 0 196.427V201.785C0.77792 203.849 2.58752 205.732 5.72832 207.349C7.31952 208.167 9.00058 207.693 10.5593 206.636C12.1185 205.578 13.649 203.879 15.0313 202.039C17.2187 199.129 19.1023 195.771 20.1814 193.848C20.4021 193.449 20.6277 193.053 20.8582 192.659C31.3523 175.126 42.3026 158.169 55.8946 142.816C61.3459 136.659 66.6507 130.319 71.9622 123.97C82.6035 111.252 93.273 98.4988 105.205 87.1183C108.275 84.1897 111.368 81.2997 114.457 78.4139C125.726 67.8858 136.941 57.4088 146.767 45.3153C153.51 37.0161 159.805 28.335 166.092 19.6643C169.075 15.5505 172.057 11.4379 175.083 7.37069C176.925 4.89549 178.785 2.43568 180.673 0Z" fill="#F2F2F2"/>
<path d="M0 4.13462C1.24301 2.75392 2.4881 1.37654 3.73568 0H4.85888C3.23523 1.78922 1.61533 3.58176 0 5.37805V4.13462Z" fill="#F2F2F2"/>
<path d="M43.8967 0C38.1505 6.84986 32.3195 13.649 26.3611 20.379C18.6301 29.1108 10.479 37.5195 2.33418 45.9214L2.32003 45.936L2.31379 45.9422C1.54221 46.7377 0.770946 47.5339 0 48.33L0 47.1353L1.7393 45.3407C9.87917 36.9441 18.0103 28.5563 25.7279 19.839C31.5299 13.2858 37.2104 6.66765 42.8106 0H43.8967Z" fill="#F2F2F2"/>
<path d="M97.3432 0H98.4418C81.578 19.5566 63.9246 38.5499 46.2966 57.5157C32.114 72.7746 17.9462 88.0181 4.22074 103.521L0 108.289V107.033L3.58758 102.981C17.343 87.4445 31.5212 72.1906 45.7076 56.9279C63.1642 38.1468 80.6337 19.3519 97.3432 0Z" fill="#F2F2F2"/>
<path d="M0 84.718V83.4417C23.2764 56.3564 46.1032 28.8696 68.9229 1.3911L70.0781 0H71.1601L69.5851 1.89696C46.5525 29.6317 23.5061 57.3826 0 84.718Z" fill="#F2F2F2"/>
<path d="M92.3682 29.479L92.3869 29.4565C100.547 19.6306 108.707 9.80512 116.885 0H117.969C109.643 9.97984 101.337 19.9821 93.0293 29.9861C62.3946 66.8753 31.7354 103.793 0 139.726V138.469C31.502 102.772 61.9412 66.1182 92.3682 29.479Z" fill="#F2F2F2"/>
<path d="M144.875 0C142.546 3.13082 140.172 6.22128 137.718 9.2327C116.258 35.5572 92.9772 60.605 69.7403 85.6057C55.558 100.865 41.3916 116.106 27.6661 131.609L0 162.858V161.603L27.0333 131.069C40.7884 115.532 54.9665 100.278 69.1529 85.0158C92.3728 60.0338 115.616 35.0276 137.063 8.71853C139.382 5.87309 141.629 2.95693 143.836 0H144.875Z" fill="#F2F2F2"/>
<path d="M167.37 199.199C180.904 183.121 194.435 167.045 208 151.011V152.299C194.654 168.077 181.339 183.895 168.021 199.718L168.011 199.729L164.918 203.405L161.049 208H159.961L167.36 199.211L167.37 199.199Z" fill="#F2F2F2"/>
<path d="M203.775 171.236C205.193 169.538 206.6 167.828 208 166.11V164.79C206.386 166.778 204.764 168.754 203.126 170.714C192.671 183.234 182.021 195.647 171.271 208H172.374C182.97 195.818 193.468 183.577 203.775 171.236Z" fill="#F2F2F2"/>
<path d="M16.5493 208C24.8568 198.535 33.0129 188.902 41.1553 179.244L44.3997 175.394L44.4741 175.306C56.0839 161.527 67.7044 147.735 79.7297 134.351C87.286 125.941 94.9707 117.57 102.663 109.19C115.428 95.2856 128.214 81.358 140.465 67.1948C146.656 60.0384 152.603 52.7334 158.55 45.4272L158.558 45.4172C159.955 43.7004 161.358 41.9769 162.759 40.2617C170.124 31.2458 177.575 22.2839 185.563 13.6739C185.946 13.2604 187.101 11.7495 188.656 9.67824C189.492 8.56461 190.436 7.29914 191.427 5.97168L191.457 5.93091C192.29 4.81478 193.155 3.65539 194.016 2.50515C194.642 1.66886 195.269 0.833803 195.898 0L196.942 0C196.189 0.995557 195.439 1.99299 194.692 2.99229C193.822 4.15293 192.947 5.32605 192.105 6.45549C191.182 7.69377 190.258 8.93067 189.332 10.1662C187.794 12.2138 186.604 13.7733 186.182 14.228C178.214 22.8176 170.776 31.7624 163.414 40.7767C162.013 42.4919 160.615 44.2081 159.217 45.9256L159.209 45.936C153.261 53.2434 147.304 60.5605 141.105 67.7273C128.847 81.8975 116.044 95.8439 103.272 109.757C95.581 118.134 87.9016 126.5 80.3583 134.895C68.3426 148.269 56.7303 162.051 45.1194 175.832L41.8014 179.769C33.8129 189.244 25.8074 198.7 17.6559 208H16.5493Z" fill="#F2F2F2"/>
<path d="M200.229 0C200.112 0.393952 200.001 0.76752 199.897 1.10739C199.78 1.49941 199.658 1.88967 199.529 2.27802C199.426 2.58419 199.33 2.84378 199.25 2.99437C198.424 4.54355 196.833 6.47754 195.194 8.38157C194.813 8.82272 194.432 9.26285 194.049 9.70195C192.78 11.1613 191.563 12.5595 190.69 13.7372C185.923 20.1685 180.336 26.3944 174.692 32.5732C174.08 33.243 173.468 33.9119 172.856 34.5808L172.823 34.617C167.795 40.1116 162.786 45.5849 158.315 51.1647C155.446 54.7452 152.571 58.3482 149.687 61.9624L149.655 62.0027L149.639 62.0231C136.856 78.0441 123.898 94.2843 110.511 109.76C89.184 134.415 67.6415 158.442 45.8493 182.565C38.1978 191.036 30.585 199.473 23.0321 208H21.9214C29.634 199.285 37.4091 190.668 45.2224 182.019C67.0129 157.897 88.5509 133.875 109.872 109.227C123.247 93.7656 136.192 77.542 148.974 61.5222C151.874 57.8864 154.768 54.2597 157.656 50.6563C162.145 45.0532 167.173 39.5595 172.199 34.0675L172.219 34.045L174.068 32.0237C179.712 25.844 185.273 19.6468 190.012 13.2538C190.906 12.0469 192.154 10.6134 193.428 9.14909L193.435 9.14077L193.449 9.12413C193.818 8.70064 194.189 8.27466 194.553 7.85075C196.204 5.93299 197.731 4.06806 198.507 2.61331C198.55 2.53344 198.625 2.33875 198.732 2.02176C198.835 1.71642 198.956 1.32538 199.093 0.874432C199.176 0.600704 199.263 0.307424 199.355 0L200.229 0Z" fill="#F2F2F2"/>
<path d="M200.939 208C203.29 205.43 205.644 202.861 208 200.296V201.525C206.021 203.681 204.042 205.84 202.066 208H200.939Z" fill="#F2F2F2"/>
<path d="M208 177.612L207.863 177.774C199.271 187.901 190.62 197.977 181.909 208H183.011C191.396 198.348 199.726 188.647 208 178.899V177.612Z" fill="#F2F2F2"/>
<path d="M208 186.862C202.093 193.932 196.175 200.997 190.183 208H189.088C195.453 200.569 201.73 193.07 208 185.564V186.862Z" fill="#F2F2F2"/>
<path d="M197.106 146.463L197.144 146.422L197.158 146.407L197.198 146.364L197.213 146.347L197.255 146.301C200.843 142.403 204.427 138.508 208 134.614V135.844C204.578 139.571 201.148 143.299 197.714 147.03C179.248 167.097 160.692 187.262 142.936 208H141.841C159.746 187.061 178.473 166.712 197.095 146.476L197.106 146.463Z" fill="#F2F2F2"/>
<path d="M207.223 142.124L208 141.146V139.808L206.598 141.571L206.528 141.659C199.892 150.009 193.258 158.355 186.434 166.538C176.489 178.464 166.075 189.559 155.577 200.744C153.316 203.153 151.045 205.573 148.779 208H149.917C152.003 205.766 154.091 203.542 156.176 201.321L156.182 201.313C166.684 190.125 177.12 179.006 187.082 167.059C193.934 158.843 200.58 150.482 207.223 142.124Z" fill="#F2F2F2"/>
<path d="M208 117.171C205.771 119.671 203.524 122.156 201.261 124.626C197.389 128.846 193.504 133.068 189.615 137.294C168.283 160.475 146.813 183.806 126.599 208H127.684C147.755 184.01 169.053 160.866 190.232 137.852C194.122 133.624 198.009 129.4 201.883 125.176C203.937 122.937 205.975 120.685 208 118.419V117.171Z" fill="#F2F2F2"/>
<path d="M208 122.583C205.238 126.029 202.489 129.488 199.74 132.947C193.097 141.304 186.451 149.665 179.6 157.881C169.637 169.828 159.201 180.947 148.7 192.135L148.694 192.142C145.806 195.214 142.925 198.293 140.05 201.378C138.013 203.57 135.994 205.777 133.992 208H132.874C135.039 205.589 137.225 203.197 139.431 200.823C142.318 197.72 145.207 194.642 148.089 191.571C158.587 180.386 169.006 169.286 178.951 157.36C185.776 149.176 192.409 140.831 199.045 132.481C202.022 128.736 205.004 124.985 208 121.252V122.583Z" fill="#F2F2F2"/>
<path d="M192.174 102.405C197.402 96.5175 202.677 90.6724 208 84.8701V86.1011C202.891 91.6761 197.827 97.291 192.806 102.945C188.701 107.572 184.585 112.196 180.467 116.823C153.905 146.663 127.26 176.595 102.953 208H101.9C126.332 176.387 153.137 146.275 179.836 116.28C183.954 111.654 188.07 107.03 192.174 102.405Z" fill="#F2F2F2"/>
<path d="M194.077 113.421C198.682 108.097 203.331 102.831 208 97.5905V96.3408C203.117 101.817 198.253 107.321 193.438 112.888C183.815 124.012 174.767 135.363 165.791 146.74C164.543 148.324 163.295 149.907 162.047 151.491L162.038 151.503L162.028 151.515C154.317 161.305 146.602 171.097 138.566 180.764C132.446 188.127 126.114 195.377 119.778 202.633C118.216 204.421 116.653 206.209 115.095 208H116.198C117.589 206.403 118.982 204.808 120.375 203.213L120.386 203.2C126.723 195.945 133.063 188.686 139.216 181.285C147.261 171.606 154.98 161.808 162.693 152.017L162.708 151.997C163.957 150.412 165.205 148.828 166.454 147.244C175.429 135.868 184.467 124.529 194.077 113.421Z" fill="#F2F2F2"/>
<path d="M208 45.0918C205.11 48.8416 202.22 52.5977 199.328 56.3558C188.59 70.3135 177.823 84.3073 166.909 98.1405C153.099 115.644 138.657 132.736 124.211 149.831C122.2 152.211 120.188 154.592 118.178 156.973C103.934 173.852 89.8835 190.913 75.8701 208H76.9467C90.8141 191.092 104.719 174.212 118.824 157.498C120.834 155.117 122.844 152.737 124.855 150.358C139.301 133.263 153.753 116.16 167.572 98.6443C178.49 84.8056 189.259 70.8085 200 56.8492L200.022 56.8205C202.682 53.3623 205.341 49.9066 208 46.4563V45.0918Z" fill="#F2F2F2"/>
<path d="M208 71.7222C205.889 73.9952 203.776 76.2629 201.666 78.5271C193.921 86.8388 186.222 95.1006 178.86 103.373C151.104 134.558 123.821 166.398 96.5747 198.196L88.1723 208H87.0762C89.9769 204.617 92.8777 201.232 95.7789 197.846L95.9262 197.674C123.176 165.873 150.469 134.022 178.228 102.832C185.619 94.5277 193.332 86.2506 201.085 77.9306C203.389 75.4583 205.696 72.9819 208 70.5V71.7222Z" fill="#F2F2F2"/>
<path d="M201.049 29.3345C203.365 27.0083 205.682 24.6807 208 22.3486V23.5272C205.873 25.666 203.745 27.8041 201.617 29.9415L201.611 29.9481C186.874 44.7494 172.198 59.4895 157.79 74.9835C130.076 104.786 102.65 134.768 76.2673 165.892C67.5699 176.153 59.0561 186.525 50.5443 196.894C47.5061 200.598 44.4609 204.303 41.4152 208H40.3369C43.5206 204.139 46.6955 200.271 49.8716 196.402C58.3855 186.03 66.9056 175.65 75.6225 165.366C102.018 134.227 129.455 104.234 157.171 74.4285C171.59 58.9229 186.278 44.1699 201.017 29.3666L201.049 29.3345Z" fill="#F2F2F2"/>
<path d="M208 28.2412C204.885 31.0117 201.779 33.8081 198.736 36.8149C192.935 42.5462 187.407 48.9401 181.907 55.3011C178.987 58.6786 176.074 62.0466 173.134 65.3014C167.867 71.1312 162.407 76.7493 156.956 82.3578L156.422 82.9073C150.792 88.7005 145.178 94.4912 139.791 100.513C126.103 115.816 112.996 131.619 99.9069 147.401C95.5427 152.663 91.1805 157.923 86.7992 163.161C78.8856 172.623 70.6322 181.788 62.3891 190.942L61.8987 191.487C56.9595 196.972 52.0266 202.455 47.1723 208H46.0674C51.0781 202.266 56.1733 196.603 61.2705 190.942L61.7556 190.403C70.0019 181.245 78.2471 172.089 86.1511 162.639C90.527 157.407 94.8854 152.152 99.2472 146.893C112.338 131.109 125.462 115.285 139.161 99.97C144.561 93.9334 150.186 88.131 155.815 82.3391L156.344 81.7945C161.799 76.1827 167.25 70.5737 172.507 64.7551C175.421 61.5303 178.32 58.1765 181.235 54.8057C186.75 48.4276 192.32 41.9866 198.141 36.2346C201.384 33.0302 204.696 30.0653 208 27.1309V28.2412Z" fill="#F2F2F2"/>
</g>
<defs>
<clipPath id="clip0_63_1484">
<rect width="208" height="208" fill="white"/>
</clipPath>
</defs>
</svg>
