<svg xmlns="http://www.w3.org/2000/svg" version="1.1" xmlns:xlink="http://www.w3.org/1999/xlink" xmlns:svgjs="http://svgjs.dev/svgjs" viewBox="0 0 800 800" opacity="0.22" width="800" height="800"><g stroke-width="1.25" stroke="hsla(0, 0%, 100%, 1.00)" fill="none"><rect width="66.66666666666667" height="80" x="0" y="0"></rect><rect width="66.66666666666667" height="80" x="66.66666666666667" y="0"></rect><rect width="66.66666666666667" height="80" x="133.33333333333334" y="0"></rect><rect width="66.66666666666667" height="80" x="200" y="0"></rect><rect width="66.66666666666667" height="80" x="266.6666666666667" y="0"></rect><rect width="66.66666666666667" height="80" x="333.33333333333337" y="0"></rect><rect width="66.66666666666667" height="80" x="400.00000000000006" y="0"></rect><rect width="66.66666666666667" height="80" x="466.66666666666674" y="0"></rect><rect width="66.66666666666667" height="80" x="533.3333333333334" y="0"></rect><rect width="66.66666666666667" height="80" x="600" y="0"></rect><rect width="66.66666666666667" height="80" x="666.6666666666666" y="0"></rect><rect width="66.66666666666667" height="80" x="733.3333333333333" y="0"></rect><rect width="66.66666666666667" height="80" x="799.9999999999999" y="0"></rect><rect width="66.66666666666667" height="80" x="0" y="80"></rect><rect width="66.66666666666667" height="80" x="66.66666666666667" y="80"></rect><rect width="66.66666666666667" height="80" x="133.33333333333334" y="80"></rect><rect width="66.66666666666667" height="80" x="200" y="80"></rect><rect width="66.66666666666667" height="80" x="266.6666666666667" y="80"></rect><rect width="66.66666666666667" height="80" x="333.33333333333337" y="80"></rect><rect width="66.66666666666667" height="80" x="400.00000000000006" y="80"></rect><rect width="66.66666666666667" height="80" x="466.66666666666674" y="80"></rect><rect width="66.66666666666667" height="80" x="533.3333333333334" y="80"></rect><rect width="66.66666666666667" height="80" x="600" y="80"></rect><rect width="66.66666666666667" height="80" x="666.6666666666666" y="80"></rect><rect width="66.66666666666667" height="80" x="733.3333333333333" y="80"></rect><rect width="66.66666666666667" height="80" x="799.9999999999999" y="80"></rect><rect width="66.66666666666667" height="80" x="0" y="160"></rect><rect width="66.66666666666667" height="80" x="66.66666666666667" y="160"></rect><rect width="66.66666666666667" height="80" x="133.33333333333334" y="160"></rect><rect width="66.66666666666667" height="80" x="200" y="160"></rect><rect width="66.66666666666667" height="80" x="266.6666666666667" y="160"></rect><rect width="66.66666666666667" height="80" x="333.33333333333337" y="160"></rect><rect width="66.66666666666667" height="80" x="400.00000000000006" y="160"></rect><rect width="66.66666666666667" height="80" x="466.66666666666674" y="160"></rect><rect width="66.66666666666667" height="80" x="533.3333333333334" y="160"></rect><rect width="66.66666666666667" height="80" x="600" y="160"></rect><rect width="66.66666666666667" height="80" x="666.6666666666666" y="160"></rect><rect width="66.66666666666667" height="80" x="733.3333333333333" y="160"></rect><rect width="66.66666666666667" height="80" x="799.9999999999999" y="160"></rect><rect width="66.66666666666667" height="80" x="0" y="240"></rect><rect width="66.66666666666667" height="80" x="66.66666666666667" y="240"></rect><rect width="66.66666666666667" height="80" x="133.33333333333334" y="240"></rect><rect width="66.66666666666667" height="80" x="200" y="240"></rect><rect width="66.66666666666667" height="80" x="266.6666666666667" y="240"></rect><rect width="66.66666666666667" height="80" x="333.33333333333337" y="240"></rect><rect width="66.66666666666667" height="80" x="400.00000000000006" y="240"></rect><rect width="66.66666666666667" height="80" x="466.66666666666674" y="240"></rect><rect width="66.66666666666667" height="80" x="533.3333333333334" y="240"></rect><rect width="66.66666666666667" height="80" x="600" y="240"></rect><rect width="66.66666666666667" height="80" x="666.6666666666666" y="240"></rect><rect width="66.66666666666667" height="80" x="733.3333333333333" y="240"></rect><rect width="66.66666666666667" height="80" x="799.9999999999999" y="240"></rect><rect width="66.66666666666667" height="80" x="0" y="320"></rect><rect width="66.66666666666667" height="80" x="66.66666666666667" y="320"></rect><rect width="66.66666666666667" height="80" x="133.33333333333334" y="320"></rect><rect width="66.66666666666667" height="80" x="200" y="320"></rect><rect width="66.66666666666667" height="80" x="266.6666666666667" y="320"></rect><rect width="66.66666666666667" height="80" x="333.33333333333337" y="320"></rect><rect width="66.66666666666667" height="80" x="400.00000000000006" y="320"></rect><rect width="66.66666666666667" height="80" x="466.66666666666674" y="320"></rect><rect width="66.66666666666667" height="80" x="533.3333333333334" y="320"></rect><rect width="66.66666666666667" height="80" x="600" y="320"></rect><rect width="66.66666666666667" height="80" x="666.6666666666666" y="320"></rect><rect width="66.66666666666667" height="80" x="733.3333333333333" y="320"></rect><rect width="66.66666666666667" height="80" x="799.9999999999999" y="320"></rect><rect width="66.66666666666667" height="80" x="0" y="400"></rect><rect width="66.66666666666667" height="80" x="66.66666666666667" y="400"></rect><rect width="66.66666666666667" height="80" x="133.33333333333334" y="400"></rect><rect width="66.66666666666667" height="80" x="200" y="400"></rect><rect width="66.66666666666667" height="80" x="266.6666666666667" y="400"></rect><rect width="66.66666666666667" height="80" x="333.33333333333337" y="400"></rect><rect width="66.66666666666667" height="80" x="400.00000000000006" y="400"></rect><rect width="66.66666666666667" height="80" x="466.66666666666674" y="400"></rect><rect width="66.66666666666667" height="80" x="533.3333333333334" y="400"></rect><rect width="66.66666666666667" height="80" x="600" y="400"></rect><rect width="66.66666666666667" height="80" x="666.6666666666666" y="400"></rect><rect width="66.66666666666667" height="80" x="733.3333333333333" y="400"></rect><rect width="66.66666666666667" height="80" x="799.9999999999999" y="400"></rect><rect width="66.66666666666667" height="80" x="0" y="480"></rect><rect width="66.66666666666667" height="80" x="66.66666666666667" y="480"></rect><rect width="66.66666666666667" height="80" x="133.33333333333334" y="480"></rect><rect width="66.66666666666667" height="80" x="200" y="480"></rect><rect width="66.66666666666667" height="80" x="266.6666666666667" y="480"></rect><rect width="66.66666666666667" height="80" x="333.33333333333337" y="480"></rect><rect width="66.66666666666667" height="80" x="400.00000000000006" y="480"></rect><rect width="66.66666666666667" height="80" x="466.66666666666674" y="480"></rect><rect width="66.66666666666667" height="80" x="533.3333333333334" y="480"></rect><rect width="66.66666666666667" height="80" x="600" y="480"></rect><rect width="66.66666666666667" height="80" x="666.6666666666666" y="480"></rect><rect width="66.66666666666667" height="80" x="733.3333333333333" y="480"></rect><rect width="66.66666666666667" height="80" x="799.9999999999999" y="480"></rect><rect width="66.66666666666667" height="80" x="0" y="560"></rect><rect width="66.66666666666667" height="80" x="66.66666666666667" y="560"></rect><rect width="66.66666666666667" height="80" x="133.33333333333334" y="560"></rect><rect width="66.66666666666667" height="80" x="200" y="560"></rect><rect width="66.66666666666667" height="80" x="266.6666666666667" y="560"></rect><rect width="66.66666666666667" height="80" x="333.33333333333337" y="560"></rect><rect width="66.66666666666667" height="80" x="400.00000000000006" y="560"></rect><rect width="66.66666666666667" height="80" x="466.66666666666674" y="560"></rect><rect width="66.66666666666667" height="80" x="533.3333333333334" y="560"></rect><rect width="66.66666666666667" height="80" x="600" y="560"></rect><rect width="66.66666666666667" height="80" x="666.6666666666666" y="560"></rect><rect width="66.66666666666667" height="80" x="733.3333333333333" y="560"></rect><rect width="66.66666666666667" height="80" x="799.9999999999999" y="560"></rect><rect width="66.66666666666667" height="80" x="0" y="640"></rect><rect width="66.66666666666667" height="80" x="66.66666666666667" y="640"></rect><rect width="66.66666666666667" height="80" x="133.33333333333334" y="640"></rect><rect width="66.66666666666667" height="80" x="200" y="640"></rect><rect width="66.66666666666667" height="80" x="266.6666666666667" y="640"></rect><rect width="66.66666666666667" height="80" x="333.33333333333337" y="640"></rect><rect width="66.66666666666667" height="80" x="400.00000000000006" y="640"></rect><rect width="66.66666666666667" height="80" x="466.66666666666674" y="640"></rect><rect width="66.66666666666667" height="80" x="533.3333333333334" y="640"></rect><rect width="66.66666666666667" height="80" x="600" y="640"></rect><rect width="66.66666666666667" height="80" x="666.6666666666666" y="640"></rect><rect width="66.66666666666667" height="80" x="733.3333333333333" y="640"></rect><rect width="66.66666666666667" height="80" x="799.9999999999999" y="640"></rect><rect width="66.66666666666667" height="80" x="0" y="720"></rect><rect width="66.66666666666667" height="80" x="66.66666666666667" y="720"></rect><rect width="66.66666666666667" height="80" x="133.33333333333334" y="720"></rect><rect width="66.66666666666667" height="80" x="200" y="720"></rect><rect width="66.66666666666667" height="80" x="266.6666666666667" y="720"></rect><rect width="66.66666666666667" height="80" x="333.33333333333337" y="720"></rect><rect width="66.66666666666667" height="80" x="400.00000000000006" y="720"></rect><rect width="66.66666666666667" height="80" x="466.66666666666674" y="720"></rect><rect width="66.66666666666667" height="80" x="533.3333333333334" y="720"></rect><rect width="66.66666666666667" height="80" x="600" y="720"></rect><rect width="66.66666666666667" height="80" x="666.6666666666666" y="720"></rect><rect width="66.66666666666667" height="80" x="733.3333333333333" y="720"></rect><rect width="66.66666666666667" height="80" x="799.9999999999999" y="720"></rect><rect width="66.66666666666667" height="80" x="0" y="800"></rect><rect width="66.66666666666667" height="80" x="66.66666666666667" y="800"></rect><rect width="66.66666666666667" height="80" x="133.33333333333334" y="800"></rect><rect width="66.66666666666667" height="80" x="200" y="800"></rect><rect width="66.66666666666667" height="80" x="266.6666666666667" y="800"></rect><rect width="66.66666666666667" height="80" x="333.33333333333337" y="800"></rect><rect width="66.66666666666667" height="80" x="400.00000000000006" y="800"></rect><rect width="66.66666666666667" height="80" x="466.66666666666674" y="800"></rect><rect width="66.66666666666667" height="80" x="533.3333333333334" y="800"></rect><rect width="66.66666666666667" height="80" x="600" y="800"></rect><rect width="66.66666666666667" height="80" x="666.6666666666666" y="800"></rect><rect width="66.66666666666667" height="80" x="733.3333333333333" y="800"></rect><rect width="66.66666666666667" height="80" x="799.9999999999999" y="800"></rect></g></svg>